<?xml version="1.0" encoding="UTF-8"?>
<svg version="1.1" xmlns="http://www.w3.org/2000/svg" width="533" height="513">
<path d="M0 0 C175.89 0 351.78 0 533 0 C533 169.29 533 338.58 533 513 C357.11 513 181.22 513 0 513 C0 343.71 0 174.42 0 0 Z " fill="#FDFDFD" transform="translate(0,0)"/>
<path d="M0 0 C1.39285217 -0.00956978 1.39285217 -0.00956978 2.81384277 -0.01933289 C4.32621521 -0.02100212 4.32621521 -0.02100212 5.86914062 -0.02270508 C6.90800415 -0.02603348 7.94686768 -0.02936188 9.01721191 -0.03279114 C11.22305864 -0.0378634 13.42891307 -0.04019937 15.63476562 -0.04003906 C18.98385632 -0.04220941 22.33260897 -0.06031711 25.68164062 -0.0793457 C27.82747284 -0.08228292 29.97330661 -0.08426552 32.11914062 -0.08520508 C33.11119507 -0.09239059 34.10324951 -0.09957611 35.12536621 -0.10697937 C40.74990574 -0.08883627 45.92723711 0.43102034 51.41387939 1.68916321 C54.19994188 2.29097123 56.93113757 2.42139926 59.77539062 2.52026367 C67.04586438 3.0003893 73.61534358 4.9256728 80.52539062 7.14526367 C81.79576172 7.51844727 81.79576172 7.51844727 83.09179688 7.89916992 C87.79280073 9.32991022 91.81479891 11.27680214 95.99414062 13.86401367 C98.2122828 14.98677699 100.216238 15.72073275 102.57617188 16.46166992 C108.36454769 18.32677351 113.74723183 20.93671888 119.21289062 23.58276367 C120.72206055 24.29916016 120.72206055 24.29916016 122.26171875 25.0300293 C127.29215236 27.4474229 131.94203037 29.97107318 136.52539062 33.14526367 C137.70101563 33.61963867 138.87664062 34.09401367 140.08789062 34.58276367 C143.80132792 36.27068972 145.70702563 38.25273118 148.52539062 41.14526367 C150.18122287 41.83840275 151.84650041 42.51000792 153.52539062 43.14526367 C154.18539063 44.13526367 154.84539062 45.12526367 155.52539062 46.14526367 C156.26660156 46.4365918 157.0078125 46.72791992 157.77148438 47.02807617 C161.24606841 48.43762374 163.78993705 50.59084177 166.58789062 53.02026367 C167.14718262 53.50060059 167.70647461 53.9809375 168.28271484 54.47583008 C172.36503094 58.02851123 176.30174384 61.71632008 180.15039062 65.52026367 C180.64676025 66.00736816 181.14312988 66.49447266 181.65454102 66.99633789 C184.4822977 69.84906697 186.49568583 72.70288435 188.52539062 76.14526367 C190.09024022 77.97137043 191.69762955 79.76158129 193.33789062 81.52026367 C194.2221875 82.4819043 195.10648437 83.44354492 196.01757812 84.43432617 C197.47914743 86.01427804 198.94202966 87.59302097 200.40820312 89.16870117 C203.82241107 92.96035924 205.66334447 96.39704598 207.52539062 101.14526367 C208.18539063 101.80526367 208.84539062 102.46526367 209.52539062 103.14526367 C210.24466358 105.46292096 210.91637993 107.79622241 211.52539062 110.14526367 C212.18539063 110.14526367 212.84539062 110.14526367 213.52539062 110.14526367 C214.08806641 111.82942383 214.08806641 111.82942383 214.66210938 113.54760742 C217.37196822 121.52050357 220.16830162 128.90553783 224.52539062 136.14526367 C226.14680792 139.64411152 227.06531182 143.157253 227.95507812 146.90698242 C228.57812945 149.35224551 229.3266581 151.73962108 230.08789062 154.14526367 C231.07169061 157.33277564 231.7512523 160.32697161 232.08789062 163.64526367 C232.1681722 167.19733899 232.1681722 167.19733899 234.52539062 169.14526367 C244.18670297 196.96709267 243.33599086 235.92486285 235.14746094 263.91333008 C234.49878867 266.24070915 234.01890183 268.56888579 233.54882812 270.93823242 C232.772132 274.55016287 231.45398636 276.97990261 229.52539062 280.14526367 C228.24243782 283.68600248 227.17204896 287.28941553 226.08789062 290.89526367 C223.98190697 297.88050383 221.66730966 304.55245148 218.52539062 311.14526367 C217.86539062 311.14526367 217.20539063 311.14526367 216.52539062 311.14526367 C216.52539062 313.12526367 216.52539062 315.10526367 216.52539062 317.14526367 C215.53539062 317.47526367 214.54539062 317.80526367 213.52539062 318.14526367 C212.81828384 319.79517949 212.15976406 321.46603987 211.52539062 323.14526367 C207.96983507 328.92304145 207.96983507 328.92304145 205.52539062 330.14526367 C202.15074946 335.6145097 199.35575182 341.38014271 196.52539062 347.14526367 C195.53539062 347.14526367 194.54539062 347.14526367 193.52539062 347.14526367 C193.25984375 346.43499023 192.99429687 345.7247168 192.72070312 344.99291992 C192.3675 344.07381836 192.01429688 343.1547168 191.65039062 342.20776367 C191.30234375 341.29124023 190.95429688 340.3747168 190.59570312 339.43041992 C189.74348202 336.99585311 189.74348202 336.99585311 187.52539062 336.14526367 C186.68658373 334.19393394 185.92918303 332.2073161 185.21289062 330.20776367 C183.28267283 325.00133051 181.12036006 320.08251556 178.54101562 315.16870117 C177.52539062 313.14526367 177.52539062 313.14526367 176.52539062 310.14526367 C176.07164062 309.73276367 175.61789062 309.32026367 175.15039062 308.89526367 C173.26535397 306.8652242 172.48778884 304.77145604 171.47070312 302.22338867 C170.36249164 299.78715516 169.00749376 297.60127522 167.58789062 295.33276367 C164.59482376 290.45791714 162.52241874 285.48866322 160.52539062 280.14526367 C159.15967352 276.7376006 157.7318796 273.48941197 155.83789062 270.33276367 C154.52539062 268.14526367 154.52539062 268.14526367 154.52539062 266.14526367 C153.53539062 265.81526367 152.54539062 265.48526367 151.52539062 265.14526367 C150.60351562 262.77416992 150.60351562 262.77416992 149.77539062 259.70776367 C148.05082584 254.09460493 145.62759318 250.1125058 142.12695312 245.44995117 C140.25252059 242.75259703 139.21781893 240.17869537 138.20117188 237.07885742 C137.24766279 234.35060889 135.92958494 231.85241702 134.58789062 229.29760742 C133.70187653 227.50277739 132.90981053 225.66195908 132.14257812 223.81323242 C130.60750284 220.19078218 128.68021601 216.8927751 126.65039062 213.52026367 C123.29840182 207.84270299 120.78921237 202.1365454 118.63085938 195.88745117 C117.55486635 193.21838014 116.28319428 191.39563868 114.52539062 189.14526367 C114.21601563 188.15526367 113.90664063 187.16526367 113.58789062 186.14526367 C112.40486528 182.80495683 111.03245036 181.5763519 108.52539062 179.14526367 C107.47074413 177.17353327 106.47933898 175.16763419 105.52539062 173.14526367 C104.67308536 171.70665925 103.8187722 170.26924328 102.96289062 168.83276367 C100.73958252 164.9287405 99.74941629 161.43324385 99.17773438 156.99291992 C98.68317762 154.95803827 98.68317762 154.95803827 96.59179688 154.01635742 C95.90988281 153.72889648 95.22796875 153.44143555 94.52539062 153.14526367 C92.15962346 150.77949651 91.60654018 148.92080104 90.52539062 145.77026367 C89.15554592 141.79351844 89.15554592 141.79351844 87.40039062 137.98120117 C86.52539062 136.14526367 86.52539062 136.14526367 86.52539062 133.14526367 C85.53539062 132.81526367 84.54539062 132.48526367 83.52539062 132.14526367 C80.5626685 127.23199494 79.04955548 121.63225716 77.52539062 116.14526367 C76.54598664 113.80321067 75.5450449 111.47007541 74.52539062 109.14526367 C71.52539062 101.76799094 71.52539062 101.76799094 71.52539062 98.14526367 C70.86539062 98.14526367 70.20539063 98.14526367 69.52539062 98.14526367 C69.11546875 97.38600586 68.70554687 96.62674805 68.28320312 95.84448242 C67.744375 94.85061523 67.20554687 93.85674805 66.65039062 92.83276367 C66.11671875 91.84663086 65.58304687 90.86049805 65.03320312 89.84448242 C63.51816936 87.04939909 63.51816936 87.04939909 61.52539062 84.14526367 C61.09226562 82.47463867 61.09226562 82.47463867 60.65039062 80.77026367 C59.47080376 76.96937266 58.02354602 75.17333082 55.52539062 72.14526367 C54.05036026 69.03131068 52.73610571 66.14616031 52.02539062 62.77026367 C51.86039063 62.23401367 51.69539062 61.69776367 51.52539062 61.14526367 C50.53539062 60.81526367 49.54539062 60.48526367 48.52539062 60.14526367 C43.75459491 52.69089536 40.84848159 44.46626864 37.70898438 36.23120117 C36.67132883 33.52576263 35.60925805 30.83245572 34.52539062 28.14526367 C33.86539063 28.14526367 33.20539063 28.14526367 32.52539062 28.14526367 C32.19667969 27.2712793 32.19667969 27.2712793 31.86132812 26.37963867 C29.16576557 19.41062329 25.94749606 12.78414821 22.52539062 6.14526367 C20.10486265 6.277003 20.10486265 6.277003 17.52539062 7.14526367 C15.90897268 9.25109768 15.90897268 9.25109768 14.83789062 11.89526367 C14.44214844 12.75635742 14.04640625 13.61745117 13.63867188 14.50463867 C12.07452385 18.21468803 10.6288402 21.73146539 9.65039062 25.64526367 C8.46556306 29.33139388 6.91298612 31.1607693 4.52539062 34.14526367 C3.7966859 36.45997279 3.13299544 38.79585837 2.52539062 41.14526367 C0.07162107 47.43971602 0.07162107 47.43971602 -1.97460938 50.08276367 C-3.83777572 52.6446174 -4.66380628 55.24390408 -5.63085938 58.24291992 C-6.47460938 60.14526367 -6.47460938 60.14526367 -7.90820312 61.50854492 C-10.10900045 63.80813115 -10.90055634 66.31308807 -12.03710938 69.27026367 C-14.25634657 75.03613227 -14.25634657 75.03613227 -16.47460938 76.14526367 C-17.49796054 78.0876776 -17.49796054 78.0876776 -18.41210938 80.39526367 C-19.50977197 82.97680347 -20.57379633 85.30793029 -22.03710938 87.70776367 C-24.00507513 91.04474909 -25.17594714 94.49664119 -26.47460938 98.14526367 C-27.13460937 98.14526367 -27.79460937 98.14526367 -28.47460938 98.14526367 C-28.81492188 99.84682617 -28.81492188 99.84682617 -29.16210938 101.58276367 C-30.39076665 106.59604407 -32.81533724 110.76050962 -35.47460938 115.14526367 C-36.46460938 115.14526367 -37.45460937 115.14526367 -38.47460938 115.14526367 C-38.62929688 116.10432617 -38.62929688 116.10432617 -38.78710938 117.08276367 C-39.37848798 119.71708654 -40.05531478 122.25442519 -40.84960938 124.83276367 C-41.08421875 125.59975586 -41.31882813 126.36674805 -41.56054688 127.15698242 C-42.47460938 129.14526367 -42.47460938 129.14526367 -45.47460938 131.14526367 C-46.24026658 133.15591323 -46.24026658 133.15591323 -46.72460938 135.52026367 C-48.22698746 141.0289833 -50.83001306 145.42615322 -53.77929688 150.28198242 C-56.69702095 155.2098436 -58.76437489 160.42256727 -60.94335938 165.70776367 C-61.20624756 166.33634277 -61.46913574 166.96492187 -61.73999023 167.61254883 C-62.5038789 169.44073443 -63.25707052 171.2733786 -64.00976562 173.10620117 C-65.33302042 175.85151379 -66.29285514 177.14820821 -68.47460938 179.14526367 C-71.02791681 183.05477892 -73.13857673 186.95794834 -74.41210938 191.45776367 C-76.01177918 197.00955886 -78.57605366 202.15155627 -81.47460938 207.14526367 C-82.13460937 207.47526367 -82.79460937 207.80526367 -83.47460938 208.14526367 C-84.3526255 210.22294539 -85.15362299 212.33352922 -85.91210938 214.45776367 C-87.37985339 218.56652671 -88.7995427 221.7214691 -91.47460938 225.14526367 C-92.37620914 227.19209375 -92.37620914 227.19209375 -93.03710938 229.27026367 C-93.94405388 231.9859732 -94.39652261 233.06717691 -96.47460938 235.14526367 C-97.12471424 236.64703431 -97.72227283 238.17188898 -98.28710938 239.70776367 C-99.63606261 243.21604877 -101.12353881 246.41179052 -103.03710938 249.64526367 C-105.33059923 253.59399391 -106.60469762 257.46204809 -107.70117188 261.88354492 C-108.56982151 264.42368704 -109.83142542 266.03927081 -111.47460938 268.14526367 C-112.36596181 269.99866761 -112.36596181 269.99866761 -113.03710938 271.83276367 C-114.47460938 275.14526367 -114.47460938 275.14526367 -116.47460938 276.14526367 C-117.5281378 278.45492215 -118.53180033 280.78824107 -119.47460938 283.14526367 C-120.13460937 283.14526367 -120.79460937 283.14526367 -121.47460938 283.14526367 C-121.90773437 284.81588867 -121.90773437 284.81588867 -122.34960938 286.52026367 C-123.47460938 290.14526367 -123.47460938 290.14526367 -125.47460938 292.14526367 C-126.20112648 293.78782407 -126.92668624 295.43158089 -127.59570312 297.09838867 C-128.30462381 298.74938619 -129.09617969 300.3647576 -129.91210938 301.96557617 C-131.49298101 305.18264994 -132.78322167 308.41346085 -134.03710938 311.77026367 C-135.36812003 315.32791832 -136.69662132 318.7859314 -138.47460938 322.14526367 C-139.13460937 322.14526367 -139.79460937 322.14526367 -140.47460938 322.14526367 C-141.13460937 324.78526367 -141.79460937 327.42526367 -142.47460938 330.14526367 C-143.13460937 330.14526367 -143.79460937 330.14526367 -144.47460938 330.14526367 C-144.51585937 331.13526367 -144.55710938 332.12526367 -144.59960938 333.14526367 C-145.2708189 337.9720498 -147.99501259 341.81281402 -151.47460938 345.14526367 C-152.46460938 345.14526367 -153.45460937 345.14526367 -154.47460938 345.14526367 C-155.75585938 343.78979492 -155.75585938 343.78979492 -156.97460938 341.95776367 C-157.40515625 341.31323242 -157.83570313 340.66870117 -158.27929688 340.00463867 C-158.87097656 339.08424805 -158.87097656 339.08424805 -159.47460938 338.14526367 C-160.01085937 337.34088867 -160.54710937 336.53651367 -161.09960938 335.70776367 C-162.25845019 333.54810579 -163.01161415 331.63683618 -163.78710938 329.33276367 C-164.9302457 326.09793109 -166.3982173 323.76157026 -168.53710938 321.08276367 C-171.39977204 317.49734955 -172.47580951 314.59446307 -173.47460938 310.14526367 C-173.80460937 309.81526367 -174.13460937 309.48526367 -174.47460938 309.14526367 C-174.5152477 307.47909252 -174.51733038 305.81138272 -174.47460938 304.14526367 C-175.13460937 304.14526367 -175.79460937 304.14526367 -176.47460938 304.14526367 C-179.40620415 298.7875215 -181.19356466 293.7935305 -182.68945312 287.88354492 C-183.6463258 284.54639197 -184.98452111 281.5226325 -186.50976562 278.41088867 C-187.79667335 275.38900008 -188.61564889 272.31476129 -189.47460938 269.14526367 C-189.81621094 267.89229492 -190.1578125 266.63932617 -190.50976562 265.34838867 C-192.37384532 258.25174225 -193.91474922 251.45001119 -194.29882812 244.08666992 C-194.26613083 242.14025452 -194.26613083 242.14025452 -195.47460938 241.14526367 C-195.57263592 239.75441048 -195.60259103 238.3586581 -195.60400391 236.96435547 C-195.60715607 236.07640793 -195.61030823 235.18846039 -195.61355591 234.27360535 C-195.61153168 233.30699478 -195.60950745 232.34038422 -195.60742188 231.34448242 C-195.6083786 230.35656204 -195.60933533 229.36864166 -195.61032104 228.3507843 C-195.61100316 226.25501441 -195.60914668 224.15924242 -195.60498047 222.06347656 C-195.59964961 218.85696642 -195.60491561 215.65059745 -195.61132812 212.4440918 C-195.61066702 210.41088836 -195.60938517 208.37768502 -195.60742188 206.34448242 C-195.61045822 204.90367561 -195.61045822 204.90367561 -195.61355591 203.4337616 C-195.61040375 202.53635757 -195.60725159 201.63895355 -195.60400391 200.71435547 C-195.60281052 199.5330732 -195.60281052 199.5330732 -195.60159302 198.32792664 C-195.47444998 196.14252384 -195.03649578 194.25473301 -194.47460938 192.14526367 C-194.34942277 190.16731531 -194.24777301 188.18781749 -194.16210938 186.20776367 C-193.68029787 179.12513452 -191.82167374 172.81529311 -189.47460938 166.14526367 C-188.81460938 166.14526367 -188.15460938 166.14526367 -187.47460938 166.14526367 C-187.44882813 165.41823242 -187.42304688 164.69120117 -187.39648438 163.94213867 C-187.01647173 157.20555085 -185.82184437 151.50310061 -183.51757812 145.17260742 C-182.12347356 141.12604922 -181.19823363 137.01398311 -180.28320312 132.83666992 C-179.40534795 129.91472686 -178.04916359 127.74616344 -176.47460938 125.14526367 C-175.98658246 123.49268576 -175.54784698 121.82466551 -175.16210938 120.14526367 C-173.96798296 115.88767158 -172.71759083 114.17525942 -169.00976562 111.60620117 C-166.91277944 109.610596 -166.14299424 107.49710675 -165.03710938 104.83276367 C-163.04995781 100.0623261 -160.73757414 96.93656523 -157.20898438 93.21948242 C-155.28751916 90.92151389 -154.10510637 88.64415166 -152.78710938 85.95776367 C-149.54627136 79.64386945 -144.97695045 74.94452957 -140.08398438 69.89526367 C-137.4114568 67.23505679 -137.4114568 67.23505679 -135.47460938 64.14526367 C-134.48460937 63.81526367 -133.49460938 63.48526367 -132.47460938 63.14526367 C-132.14460938 62.15526367 -131.81460938 61.16526367 -131.47460938 60.14526367 C-129.83789062 58.42651367 -129.83789062 58.42651367 -127.78710938 56.64526367 C-126.79130859 55.76354492 -126.79130859 55.76354492 -125.77539062 54.86401367 C-123.47460937 53.14526367 -123.47460937 53.14526367 -120.52539062 51.68823242 C-117.3585535 50.08656704 -115.02949101 48.27295193 -112.34960938 45.95776367 C-103.58015771 38.63395731 -94.07978853 30.90362415 -82.47460938 29.14526367 C-82.47460938 28.48526367 -82.47460938 27.82526367 -82.47460938 27.14526367 C-78.44174034 25.10162089 -74.39895082 23.07982494 -70.34570312 21.0769043 C-68.75657654 20.2856586 -67.17699056 19.47529744 -65.59960938 18.66088867 C-47.65852184 9.79001761 -28.05026262 4.29058914 -8.29272461 1.4831543 C-0.32022532 0.00149201 -0.32022532 0.00149201 0 0 Z " fill="#314354" transform="translate(245.474609375,34.854736328125)"/>
<path d="M0 0 C1.05785962 0.00436926 1.05785962 0.00436926 2.13709015 0.00882679 C2.8811511 0.00797237 3.62521206 0.00711794 4.39182031 0.00623763 C6.9038936 0.0045806 9.41590123 0.0101078 11.92796844 0.01555592 C13.72119658 0.01583777 15.51442482 0.0156801 17.30765289 0.01511341 C22.19174545 0.01482535 27.07581368 0.02072345 31.95990056 0.02768737 C37.0581776 0.0339195 42.15645514 0.0345246 47.25473541 0.03571278 C56.91618339 0.03882651 66.57762013 0.04704047 76.23906314 0.05706227 C87.23524803 0.0682221 98.23143344 0.07373353 109.22762257 0.0787577 C131.85422523 0.08922305 154.48081789 0.1068233 177.1074118 0.12908131 C177.44482895 0.87161656 177.78224609 1.6141518 178.129888 2.37918812 C178.57565689 3.36004887 179.02142578 4.34090962 179.48070282 5.35149342 C179.92124496 6.32090367 180.36178711 7.29031391 180.81567901 8.28910023 C182.54697146 12.09548947 184.281336 15.90002823 186.0449118 19.69158131 C186.38409637 20.42119068 186.72328094 21.15080006 187.07274383 21.90251881 C188.99636516 25.97585706 191.05525501 29.82515099 193.4824118 33.62908131 C195.85101332 37.37831153 196.74272492 40.50487423 197.48631805 44.83611256 C198.71824582 49.38417292 201.58466042 53.19734644 204.1074118 57.12908131 C207.16293011 62.35303196 207.16293011 62.35303196 206.9277243 65.64080006 C206.1074118 68.12908131 206.1074118 68.12908131 204.32225555 69.53533131 C203.57073211 69.89626881 202.81920868 70.25720631 202.0449118 70.62908131 C198.10109022 72.61359217 194.4254975 74.78892403 190.73631805 77.21111256 C189.1074118 78.12908131 189.1074118 78.12908131 187.1074118 78.12908131 C187.1074118 78.78908131 187.1074118 79.44908131 187.1074118 80.12908131 C186.4783493 80.29923756 185.8492868 80.46939381 185.2011618 80.64470631 C180.10493828 82.08761297 175.46515987 83.74849884 170.79881805 86.26189381 C169.1074118 87.12908131 169.1074118 87.12908131 166.1074118 88.12908131 C165.4474118 89.11908131 164.7874118 90.10908131 164.1074118 91.12908131 C161.16600555 91.97283131 161.16600555 91.97283131 157.5449118 92.62908131 C153.45752985 93.42580957 149.52361727 94.20769861 145.6074118 95.62908131 C139.56462772 97.73473384 133.39748355 99.00509681 127.1074118 100.12908131 C126.35830536 100.26878346 125.60919891 100.40848561 124.83739227 100.55242115 C109.8339682 103.22998322 94.92666789 103.39937694 79.7324118 103.37908131 C78.7298233 103.37830586 77.7272348 103.37753041 76.69426483 103.37673146 C73.82404334 103.37029835 70.95411665 103.35405478 68.0839743 103.33220631 C67.20795563 103.32782048 66.33193695 103.32343464 65.42937225 103.3189159 C59.34371602 103.24723342 59.34371602 103.24723342 57.1074118 102.12908131 C55.52494473 102.04754198 53.94124907 101.98964573 52.3574118 101.94158131 C45.97065038 101.46877494 40.02278361 99.95145765 33.8574118 98.25408131 C32.92316375 97.99731617 31.98891571 97.74055104 31.02635711 97.47600514 C26.90281939 96.31025918 22.85925143 95.07929716 18.8652243 93.52361256 C14.31767809 91.75589262 9.65250249 90.95352379 4.8652243 90.07048756 C2.1074118 89.12908131 2.1074118 89.12908131 0.8652243 87.06267506 C0.61514618 86.42458912 0.36506805 85.78650318 0.1074118 85.12908131 C-1.55178715 84.76037043 -3.22033091 84.43312809 -4.8925882 84.12908131 C-6.22537173 83.19613284 -7.55629789 82.26029459 -8.87305695 81.30486256 C-12.70186799 79.07570952 -16.98628525 77.81430436 -21.16211945 76.37517506 C-22.51370148 75.75835865 -22.51370148 75.75835865 -23.8925882 75.12908131 C-24.2225882 74.13908131 -24.5525882 73.14908131 -24.8925882 72.12908131 C-26.53491591 71.40452496 -28.20883654 70.75133736 -29.8925882 70.12908131 C-32.26532545 68.85674394 -34.57117706 67.49461727 -36.8925882 66.12908131 C-36.1425882 59.50408131 -36.1425882 59.50408131 -33.8925882 56.12908131 C-33.2325882 56.12908131 -32.5725882 56.12908131 -31.8925882 56.12908131 C-31.76626007 55.5554485 -31.63993195 54.98181568 -31.5097757 54.39080006 C-30.88151041 52.08848612 -30.03168562 50.09948628 -29.0175882 47.94158131 C-27.26375019 44.09200185 -25.89886128 40.22560181 -24.61524445 36.19939381 C-23.63007166 33.3770069 -22.25238996 30.78687566 -20.8925882 28.12908131 C-20.20622195 25.89383096 -20.20622195 25.89383096 -19.8925882 24.12908131 C-19.2325882 24.12908131 -18.5725882 24.12908131 -17.8925882 24.12908131 C-17.5625882 22.80908131 -17.2325882 21.48908131 -16.8925882 20.12908131 C-16.2325882 20.12908131 -15.5725882 20.12908131 -14.8925882 20.12908131 C-13.32629112 17.10937343 -12.01633656 14.04257716 -10.7675882 10.87908131 C-10.41438507 9.98705006 -10.06118195 9.09501881 -9.6972757 8.17595631 C-9.43172882 7.50048756 -9.16618195 6.82501881 -8.8925882 6.12908131 C-8.2325882 6.12908131 -7.5725882 6.12908131 -6.8925882 6.12908131 C-6.7482132 5.32470631 -6.6038382 4.52033131 -6.4550882 3.69158131 C-5.51171739 -0.60599682 -4.10946696 0.01286564 0 0 Z " fill="#304354" transform="translate(180.89258819818497,364.8709186911583)"/>
<path d="M0 0 C1.32 0 2.64 0 4 0 C4.433125 0.94875 4.86625 1.8975 5.3125 2.875 C6.79302201 6.20041937 6.79302201 6.20041937 10 8 C10.73046875 10.1640625 10.73046875 10.1640625 11.1875 12.625 C11.34605469 13.44226563 11.50460937 14.25953125 11.66796875 15.1015625 C11.83232422 16.04128906 11.83232422 16.04128906 12 17 C12.66 17 13.32 17 14 17 C14.15637939 17.60658447 14.31275879 18.21316895 14.47387695 18.83813477 C16.28337914 25.38821799 18.88202273 31.01970545 22.1875 36.9375 C23.10322584 38.58937263 24.01364779 40.24420002 24.91796875 41.90234375 C25.31781982 42.61898193 25.7176709 43.33562012 26.12963867 44.07397461 C27 46 27 46 27 49 C28.485 49.495 28.485 49.495 30 50 C30.84375 51.890625 30.84375 51.890625 31.5 54.25 C32.60011807 57.89018127 33.94408422 60.78204486 36 64 C36.28101563 64.73089844 36.56203125 65.46179688 36.8515625 66.21484375 C38.23824198 69.57777731 39.99060743 72.67321278 41.8125 75.8125 C42.16852295 76.43415039 42.5245459 77.05580078 42.89135742 77.69628906 C44.76789073 80.95353926 46.7190136 84.12891814 48.8125 87.25 C51.54550094 91.49723118 52.77445362 96.13766964 54 101 C54.66 101 55.32 101 56 101 C56 102.32 56 103.64 56 105 C56.66 105 57.32 105 58 105 C59.49821059 108.37097383 60 110.20442119 60 114 C22.38 114 -15.24 114 -54 114 C-55 111 -55 111 -53.6875 108.3125 C-53.130625 107.549375 -52.57375 106.78625 -52 106 C-51.34 106 -50.68 106 -50 106 C-49.87625 105.38125 -49.7525 104.7625 -49.625 104.125 C-49 102 -49 102 -47 100 C-45.93662236 97.17150157 -45.02166997 94.3103814 -44.09765625 91.43359375 C-43.73542969 90.63050781 -43.37320313 89.82742188 -43 89 C-41.515 88.505 -41.515 88.505 -40 88 C-39.34243762 86.17549452 -39.34243762 86.17549452 -39 84 C-38.51447648 82.45371315 -38.01405886 80.91203598 -37.5 79.375 C-37.11328125 78.21097656 -37.11328125 78.21097656 -36.71875 77.0234375 C-36 75 -36 75 -35 73 C-34.34 73 -33.68 73 -33 73 C-32.82984375 72.38253906 -32.6596875 71.76507813 -32.484375 71.12890625 C-30.49025252 64.16008459 -28.13806122 57.53602433 -24.375 51.3125 C-22.78559323 48.6394068 -21.89757304 45.96889545 -21 43 C-20.34 43 -19.68 43 -19 43 C-19 42.01 -19 41.02 -19 40 C-18.34 40 -17.68 40 -17 40 C-16.9175 39.360625 -16.835 38.72125 -16.75 38.0625 C-15.3739119 32.4434736 -12.69195418 27.31814229 -10.0625 22.1875 C-7.84268341 17.82652174 -6.02771986 13.31411634 -4.171875 8.7890625 C-2.90628057 5.77694775 -1.52409645 2.88776169 0 0 Z " fill="#304254" transform="translate(264,186)"/>
<path d="M0 0 C0.69124604 0.01388209 1.38249207 0.02776417 2.09468496 0.04206693 C2.8358145 0.03708924 3.57694405 0.03211155 4.34053206 0.02698302 C6.82536769 0.01640056 9.30854933 0.04156946 11.79326284 0.06657255 C13.57383792 0.06634587 15.35441386 0.06393228 17.13498342 0.05949247 C21.97174217 0.05378009 26.80789953 0.07909723 31.64454353 0.11016738 C36.70047359 0.13768293 41.75640409 0.13770588 46.81239736 0.14088285 C55.30140521 0.15008952 63.79018789 0.17763359 72.27910268 0.21793973 C84.26261392 0.27478535 96.24601186 0.29708974 108.22963679 0.31322443 C116.51850367 0.32566907 124.80735327 0.34635322 133.09619892 0.36860454 C135.10927796 0.37397087 137.12235763 0.37910702 139.13543785 0.38401687 C144.87165058 0.39829831 150.60779824 0.41769389 156.34396207 0.44549406 C158.08468051 0.45323173 159.82540732 0.45928653 161.56613767 0.46357191 C163.93434559 0.46976541 166.30244033 0.48210644 168.67061269 0.49616849 C169.36632017 0.49666625 170.06202765 0.49716401 170.77881718 0.49767685 C175.52713207 0.53580209 175.52713207 0.53580209 177.75566518 1.65006864 C177.42566518 2.64006864 177.09566518 3.63006864 176.75566518 4.65006864 C176.75566518 3.99006864 176.75566518 3.33006864 176.75566518 2.65006864 C116.69566518 2.98006864 56.63566518 3.31006864 -5.24433482 3.65006864 C-5.90433482 5.30006864 -6.56433482 6.95006864 -7.24433482 8.65006864 C-7.90433482 8.65006864 -8.56433482 8.65006864 -9.24433482 8.65006864 C-9.34745982 9.35131864 -9.45058482 10.05256864 -9.55683482 10.77506864 C-10.68156395 15.47848139 -12.53390923 19.46970385 -16.24433482 22.65006864 C-15.57766815 19.98340197 -14.91100148 17.31673531 -14.24433482 14.65006864 C-13.58433482 14.65006864 -12.92433482 14.65006864 -12.24433482 14.65006864 C-12.07417857 14.05838895 -11.90402232 13.46670927 -11.72870982 12.85709989 C-11.48636607 12.06690458 -11.24402232 11.27670927 -10.99433482 10.46256864 C-10.76230357 9.68526395 -10.53027232 8.90795927 -10.29120982 8.10709989 C-8.05327225 2.85462702 -5.98308755 0.09926291 0 0 Z " fill="#C6D0D9" transform="translate(181.24433481693268,362.3499313592911)"/>
<path d="M0 0 C60.06 0 120.12 0 182 0 C183.65 3.63 185.3 7.26 187 11 C186.67 11.66 186.34 12.32 186 13 C183.06315817 8.19425882 183.06315817 8.19425882 182.30894756 5.87449455 C181.09192231 3.6758495 181.09192231 3.6758495 178.11790943 3.39517403 C176.90150619 3.34993536 175.68510294 3.30469669 174.43183899 3.25808716 C173.76482352 3.22949494 173.09780804 3.20090271 172.41057998 3.17144406 C170.27362479 3.08916443 168.13814761 3.03959597 166 3 C165.33138372 2.98599828 164.66276744 2.97199656 163.97389007 2.95757055 C159.01257417 2.86549726 154.05257562 2.8635646 149.09057617 2.87060547 C147.45616111 2.86924651 145.82174635 2.86746382 144.18733215 2.86529541 C139.79978852 2.86078459 135.41226871 2.86248289 131.02472472 2.8656745 C126.41860759 2.86822563 121.81249235 2.86585346 117.20637512 2.86428833 C109.48938636 2.862477 101.77240722 2.86484811 94.05541992 2.86962891 C85.12956993 2.87509467 76.2037427 2.87328802 67.27789325 2.8678025 C59.59779102 2.86327163 51.91769565 2.86261994 44.23759252 2.86524117 C39.65689267 2.86680087 35.07620354 2.86700558 30.49550438 2.86370468 C26.20181007 2.86082552 21.90814537 2.86280245 17.61445427 2.86859894 C16.03658853 2.86992522 14.45872032 2.86953465 12.88085556 2.86733627 C10.73439431 2.86462025 8.58802915 2.86801116 6.4415741 2.87301636 C5.23875888 2.87339338 4.03594366 2.87377041 2.7966795 2.87415886 C0.04502492 2.8080892 0.04502492 2.8080892 -2 4 C-1.34 2.68 -0.68 1.36 0 0 Z " fill="#6B7B88" transform="translate(176,365)"/>
<path d="M0 0 C8.48546814 5.18556387 9.62338034 16.14415169 11.92578125 25.08984375 C14.46785581 35.89439008 14.46785581 35.89439008 20 45 C20.34572133 47.10933774 20.44092449 49.18708268 20.55859375 51.3203125 C20.90397212 54.1733045 20.90397212 54.1733045 22.50488281 57.2109375 C24.94367566 63.6428097 24.41020765 70.53013438 24.36328125 77.3046875 C24.36276151 78.7938741 24.36328362 80.28306139 24.36479187 81.77224731 C24.36470251 84.88391449 24.35435053 87.99532064 24.33618164 91.10693359 C24.31353554 95.06969622 24.31294724 99.03207691 24.31969929 102.9948864 C24.32306261 106.06807775 24.31636438 109.14118413 24.30657005 112.21435928 C24.30275539 113.67420124 24.3015541 115.13405271 24.3031559 116.59389877 C24.30504908 126.91401179 23.51619419 136.29682003 20 146.0625 C18.78024906 149.57376833 17.72022163 152.97887801 17 156.625 C16.14220506 160.82288145 14.66858231 164.6119884 13.01953125 168.55859375 C11.58079663 172.00383948 10.29661119 175.4991498 9 179 C7.59078575 174.55095334 8.89607854 171.16648833 10.3125 166.875 C10.53873047 166.14667969 10.76496094 165.41835938 10.99804688 164.66796875 C12.72880527 159.27119473 12.72880527 159.27119473 15 157 C15.70703042 154.86661902 15.70703042 154.86661902 16.21875 152.37890625 C16.42886719 151.44240234 16.63898438 150.50589844 16.85546875 149.54101562 C17.06816406 148.55810547 17.28085937 147.57519531 17.5 146.5625 C17.71269531 145.61439453 17.92539062 144.66628906 18.14453125 143.68945312 C18.57517007 141.74629454 18.99338229 139.80034695 19.40014648 137.85205078 C19.76973597 136.09480846 20.16059648 134.34169491 20.58618164 132.59716797 C22.81111814 122.57444459 22.43606817 112.2122507 22.4375 102 C22.43989685 100.98119751 22.4422937 99.96239502 22.44476318 98.91271973 C22.44507664 82.97583314 22.29514499 66.24851007 17 51 C16.34 50.34 15.68 49.68 15 49 C14.42162501 46.3683938 13.92776714 43.78091683 13.5 41.125 C12.49392117 34.82844831 12.49392117 34.82844831 10 29 C9.32741333 26.66836622 8.66152556 24.3347961 8 22 C6.1837562 16.47080211 3.75142095 11.41561167 0.98828125 6.296875 C0 4 0 4 0 0 Z " fill="#B2B8C0" transform="translate(462,153)"/>
<path d="M0 0 C1.27897205 3.56636436 0.70636923 5.37736824 -0.75 8.8125 C-3.44633171 15.72185 -4.70285833 22.71831835 -6 30 C-6.66 30 -7.32 30 -8 30 C-8.13277344 30.68707031 -8.26554687 31.37414062 -8.40234375 32.08203125 C-8.57894531 32.98308594 -8.75554688 33.88414062 -8.9375 34.8125 C-9.11152344 35.70582031 -9.28554688 36.59914062 -9.46484375 37.51953125 C-10 40 -10 40 -11 43 C-11.20115648 45.1428753 -11.36346671 47.28953884 -11.5 49.4375 C-11.89238734 55.59657982 -11.89238734 55.59657982 -12.50949097 57.9099884 C-13.0463791 60.19761685 -13.12702183 62.22046122 -13.12939453 64.5690918 C-13.13254669 65.46649582 -13.13569885 66.36389984 -13.13894653 67.28849792 C-13.1369223 68.2490358 -13.13489807 69.20957367 -13.1328125 70.19921875 C-13.13376923 71.19000931 -13.13472595 72.18079987 -13.13571167 73.20161438 C-13.13639139 75.2920437 -13.13455162 77.38247514 -13.13037109 79.47290039 C-13.12500291 82.68575729 -13.13033186 85.89847547 -13.13671875 89.11132812 C-13.13605827 91.14062531 -13.13477772 93.16992241 -13.1328125 95.19921875 C-13.13483673 96.16582932 -13.13686096 97.13243988 -13.13894653 98.12834167 C-13.13579437 99.01628922 -13.13264221 99.90423676 -13.12939453 100.8190918 C-13.12859894 101.60422653 -13.12780334 102.38936127 -13.12698364 103.19828796 C-13.19628946 105.02225851 -13.19628946 105.02225851 -12 106 C-11.86253848 107.51818611 -11.76690603 109.04017303 -11.6875 110.5625 C-10.89870083 120.15329625 -8.46605469 129.96924499 -4.84765625 138.88671875 C-1.06778472 148.31026942 2.6261429 158.10892873 5 168 C5.66 168 6.32 168 7 168 C9 174 9 174 9.625 176.19140625 C10.78024035 180.07065084 11.84271737 183.13974358 14.5625 186.1875 C17.08728154 189.10070946 18.0332124 191.30862915 19 195 C12.841507 192.06738429 10.99420445 187.64883748 8.19921875 181.58203125 C7.23622854 179.1217431 7.23622854 179.1217431 6 178 C5.8453125 176.1746875 5.8453125 176.1746875 5.6875 174.3125 C5.20352753 169.9951583 3.55562757 167.53277929 1 164 C-1.06739687 159.70617573 -2.40758569 155.58372292 -3.46484375 150.97265625 C-4.03292301 148.68624067 -4.03292301 148.68624067 -5.5625 145.4375 C-7.03969547 141.90507606 -7.4724769 138.76802215 -8 135 C-8.66 134.67 -9.32 134.34 -10 134 C-12.62426494 126.7173509 -13.40629408 119.20224022 -13.7890625 111.51953125 C-13.72169601 109.06308787 -13.72169601 109.06308787 -15 108 C-15.09899286 106.20020229 -15.12799148 104.39651166 -15.12939453 102.59399414 C-15.13412277 100.86198509 -15.13412277 100.86198509 -15.13894653 99.09498596 C-15.1369223 97.83774216 -15.13489807 96.58049835 -15.1328125 95.28515625 C-15.13376923 94.00394394 -15.13472595 92.72273163 -15.13571167 91.4026947 C-15.13718848 88.68650105 -15.13503498 85.97034023 -15.13037109 83.25415039 C-15.12467947 79.76915142 -15.12794929 76.28422956 -15.13394356 72.79923344 C-15.13842309 69.48203483 -15.13528772 66.16485704 -15.1328125 62.84765625 C-15.13483673 61.59243668 -15.13686096 60.3372171 -15.13894653 59.04396057 C-15.13579437 57.88613571 -15.13264221 56.72831085 -15.12939453 55.53540039 C-15.12859894 54.51249405 -15.12780334 53.48958771 -15.12698364 52.4356842 C-15 50 -15 50 -14 48 C-13.84301077 46.37777795 -13.72402198 44.75178968 -13.625 43.125 C-13.12051538 36.88096909 -11.67131212 31.02303046 -10 25 C-9.34 25 -8.68 25 -8 25 C-8.04125 24.071875 -8.0825 23.14375 -8.125 22.1875 C-8 19 -8 19 -6 16 C-5.53870717 14.3525256 -5.07968049 12.70432086 -4.640625 11.05078125 C-3.44577498 7.22580407 -1.69356815 3.62555124 0 0 Z " fill="#BFC5CB" transform="translate(64,171)"/>
<path d="M0 0 C0.66 0 1.32 0 2 0 C2 1.32 2 2.64 2 4 C2.66 4 3.32 4 4 4 C5.49821059 7.37097383 6 9.20442119 6 13 C-31.62 13 -69.24 13 -108 13 C-108.33 12.01 -108.66 11.02 -109 10 C-107.5625 7.3125 -107.5625 7.3125 -106 5 C-105 7 -105 7 -106 11 C-70.03 11 -34.06 11 3 11 C3 9.35 3 7.7 3 6 C2.01 6 1.02 6 0 6 C0 4.02 0 2.04 0 0 Z " fill="#707C87" transform="translate(318,287)"/>
<path d="M0 0 C0.33 1.32 0.66 2.64 1 4 C38.62 4.33 76.24 4.66 115 5 C115.33 3.68 115.66 2.36 116 1 C118 3 118 3 118 6 C115.10126681 6.9662444 113.28572407 7.1235395 110.27339172 7.12025452 C109.30164001 7.12162918 108.32988831 7.12300385 107.32868958 7.12442017 C105.73186592 7.11902725 105.73186592 7.11902725 104.1027832 7.11352539 C102.98068451 7.11367142 101.85858582 7.11381744 100.70248413 7.1139679 C96.98523032 7.11326998 93.26802633 7.10548317 89.55078125 7.09765625 C86.9767408 7.09579164 84.40269999 7.09436794 81.82865906 7.09336853 C75.74074472 7.08993757 69.65285101 7.08205218 63.56494445 7.07201904 C56.63393306 7.06084421 49.70292083 7.055344 42.77190268 7.05032361 C28.51459215 7.03986921 14.25729671 7.0222783 0 7 C-0.38133299 5.0085944 -0.71325582 3.00720923 -1 1 C-0.67 0.67 -0.34 0.34 0 0 Z " fill="#D3D6DB" transform="translate(209,295)"/>
<path d="M0 0 C-0.33 0.66 -0.66 1.32 -1 2 C-3.14637624 2.56312893 -5.31962351 3.02518521 -7.5 3.4375 C-11.6016413 4.26030909 -15.564576 5.07639018 -19.5 6.5 C-25.54278408 8.60565253 -31.70992825 9.8760155 -38 11 C-38.74910645 11.13970215 -39.49821289 11.2794043 -40.27001953 11.42333984 C-55.2734436 14.10090191 -70.18074391 14.27029563 -85.375 14.25 C-86.3775885 14.24922455 -87.380177 14.2484491 -88.41314697 14.24765015 C-91.28336846 14.24121704 -94.15329516 14.22497347 -97.0234375 14.203125 C-97.89945618 14.19873917 -98.77547485 14.19435333 -99.67803955 14.18983459 C-105.76369578 14.11815211 -105.76369578 14.11815211 -108 13 C-109.68618487 12.89331695 -111.37419536 12.81502411 -113.0625 12.75 C-121.39013006 12.15154668 -129.09670414 9.53766964 -137 7 C-133.98968256 6.06576355 -133.13349732 5.95550089 -130 7 C-127.23268058 7.26616965 -124.46572899 7.44368808 -121.69140625 7.62109375 C-119 8 -119 8 -117.14453125 8.96484375 C-113.94003565 10.51164035 -110.62245864 10.76265404 -107.125 11.125 C-106.32143066 11.2084668 -105.51786133 11.29193359 -104.68994141 11.37792969 C-96.59583439 12.11063104 -88.49644432 12.21994358 -80.375 12.25 C-79.09512207 12.25918457 -77.81524414 12.26836914 -76.49658203 12.27783203 C-70.53119547 12.25827339 -65.04667625 12.03674972 -59.27050781 10.53027344 C-53.44789062 9.17041058 -47.37945681 8.79496456 -41.44335938 8.14453125 C-39.89938477 7.96470703 -39.89938477 7.96470703 -38.32421875 7.78125 C-37.39697998 7.67876953 -36.46974121 7.57628906 -35.5144043 7.47070312 C-33.00078704 7.00014734 -31.23989653 6.19445158 -29 5 C-26.41096804 4.64511711 -23.85002499 4.4985178 -21.2421875 4.34375 C-18.80137133 4.19589526 -18.80137133 4.19589526 -17 2 C-11.45189621 0.53138429 -5.74145019 -0.31034866 0 0 Z " fill="#6D7986" transform="translate(346,454)"/>
<path d="M0 0 C0.495 1.485 0.495 1.485 1 3 C-2.49587798 6.56993515 -6.00142139 10.12997986 -9.51635742 13.68115234 C-10.71113701 14.89103517 -11.90321245 16.10359453 -13.0925293 17.31884766 C-14.8007654 19.06339891 -16.51843852 20.79814952 -18.23828125 22.53125 C-18.76964188 23.07809448 -19.3010025 23.62493896 -19.84846497 24.18835449 C-21.17656932 25.51706038 -22.58320939 26.76629627 -24 28 C-24.99 28 -25.98 28 -27 28 C-27.2475 28.598125 -27.495 29.19625 -27.75 29.8125 C-29.16370012 32.28647521 -30.65055383 33.43370255 -33 35 C-31.63553295 29.36304551 -28.94230628 26.32454047 -25 22.3125 C-23.91495922 21.18523475 -22.831562 20.05638466 -21.75 18.92578125 C-21.27046875 18.43505127 -20.7909375 17.94432129 -20.296875 17.4387207 C-18.77672675 15.82225613 -18.77672675 15.82225613 -17 13 C-16.01 12.67 -15.02 12.34 -14 12 C-13.67 11.01 -13.34 10.02 -13 9 C-9.26907096 5.08601135 -5.29315952 1.48870112 0 0 Z " fill="#4A5A68" transform="translate(127,86)"/>
<path d="M0 0 C1.03178879 -0.00191345 2.06357758 -0.0038269 3.12663269 -0.00579834 C5.30260462 -0.0071549 7.47858479 -0.00349555 9.65454102 0.00488281 C12.95933539 0.01555674 16.26358214 0.00498622 19.56835938 -0.0078125 C21.69140744 -0.00649017 23.81445516 -0.00392626 25.9375 0 C26.91386917 -0.00404846 27.89023834 -0.00809692 28.89619446 -0.01226807 C34.47006942 0.02520819 39.6124059 0.56849929 45.05027771 1.8107605 C47.83862175 2.40967635 50.57199934 2.54170093 53.41796875 2.640625 C60.6836568 3.12043459 67.26610202 5.03120771 74.16796875 7.265625 C75.11929688 7.57242188 76.070625 7.87921875 77.05078125 8.1953125 C79.09553974 8.86835213 81.13288577 9.56387225 83.16796875 10.265625 C83.16796875 10.595625 83.16796875 10.925625 83.16796875 11.265625 C75.82483389 11.66615963 70.34084654 9.92472099 63.57421875 7.234375 C58.85623394 5.89256281 54.16928787 5.54368119 49.29296875 5.140625 C48.3184375 5.05425781 47.34390625 4.96789063 46.33984375 4.87890625 C43.94970429 4.66801159 41.5591925 4.46377863 39.16796875 4.265625 C39.16796875 3.605625 39.16796875 2.945625 39.16796875 2.265625 C33.58122071 2.24083738 27.99450495 2.22272348 22.40771484 2.21069336 C20.50862063 2.20567615 18.60953025 2.19886089 16.71044922 2.19018555 C13.97492523 2.17800537 11.23945249 2.17237046 8.50390625 2.16796875 C7.65992279 2.16280746 6.81593933 2.15764618 5.94638062 2.15232849 C1.56108942 2.15191465 -2.50848145 2.43529586 -6.83203125 3.265625 C-8.78943318 3.32950888 -10.74873272 3.35200669 -12.70703125 3.328125 C-13.67382812 3.31910156 -14.640625 3.31007812 -15.63671875 3.30078125 C-16.36117187 3.28917969 -17.085625 3.27757812 -17.83203125 3.265625 C-17.83203125 2.935625 -17.83203125 2.605625 -17.83203125 2.265625 C-11.81348186 0.16904825 -6.34135666 -0.02613156 0 0 Z " fill="#79858F" transform="translate(251.83203125,34.734375)"/>
<path d="M0 0 C0.33 0 0.66 0 1 0 C0.26853147 18.96043435 0.26853147 18.96043435 -1.0625 27.4375 C-1.98010363 33.66898735 -2.1869575 39.76565566 -2.1875 46.0625 C-2.1882251 46.95573975 -2.1889502 47.84897949 -2.18969727 48.76928711 C-2.15146096 53.30651869 -1.79187855 57.5246864 -1 62 C-0.73815498 65.59847316 -0.61085181 69.2051113 -0.48242188 72.81054688 C-0.28393936 77.01612932 0.34270557 80.09213842 2 84 C2.27876518 86.0959986 2.48588744 88.20262611 2.625 90.3125 C2.69976562 91.38113281 2.77453125 92.44976562 2.8515625 93.55078125 C2.90054688 94.35902344 2.94953125 95.16726563 3 96 C-1.6913033 88.96304506 -2.28611083 79.33360259 -2.7890625 71.046875 C-2.7816579 69.0080435 -2.7816579 69.0080435 -4 68 C-4.09802654 66.6091468 -4.12798166 65.21339443 -4.12939453 63.8190918 C-4.13254669 62.93114426 -4.13569885 62.04319672 -4.13894653 61.12834167 C-4.1369223 60.16173111 -4.13489807 59.19512054 -4.1328125 58.19921875 C-4.13376923 57.21129837 -4.13472595 56.22337799 -4.13571167 55.20552063 C-4.13639379 53.10975074 -4.13453731 51.01397875 -4.13037109 48.91821289 C-4.12504024 45.71170275 -4.13030623 42.50533378 -4.13671875 39.29882812 C-4.13605764 37.26562469 -4.1347758 35.23242134 -4.1328125 33.19921875 C-4.13483673 32.23868088 -4.13686096 31.27814301 -4.13894653 30.28849792 C-4.13579437 29.3910939 -4.13264221 28.49368988 -4.12939453 27.5690918 C-4.12820114 26.38780952 -4.12820114 26.38780952 -4.12698364 25.18266296 C-3.99977431 22.99612066 -3.56251775 21.11060059 -3 19 C-2.73667221 15.76482997 -2.55726855 12.52994348 -2.37890625 9.2890625 C-1.9947615 5.95452768 -1.17035234 3.13673381 0 0 Z " fill="#5A6976" transform="translate(54,208)"/>
<path d="M0 0 C0.66 0 1.32 0 2 0 C2.556875 1.423125 2.556875 1.423125 3.125 2.875 C4.89503875 7.03037668 7.21697136 10.78277409 9.5703125 14.62890625 C14 21.97540984 14 21.97540984 14 25 C14.99 25 15.98 25 17 25 C17.98766013 27.20486819 18.96518516 29.41337311 19.9375 31.625 C20.35418945 32.55119141 20.35418945 32.55119141 20.77929688 33.49609375 C22.45160411 37.32426694 23.4961308 40.85424076 24 45 C25.485 45.495 25.485 45.495 27 46 C27 46.99 27 47.98 27 49 C27.66 49 28.32 49 29 49 C30.48320272 52.83887763 31.22419163 55.06204091 30 59 C20.67740044 43.36642255 20.67740044 43.36642255 19.6875 37.625 C19.460625 36.42875 19.23375 35.2325 19 34 C17.09276829 32.85626522 17.09276829 32.85626522 15 32 C12.63423284 29.63423284 12.08114955 27.77553737 11 24.625 C9.63015529 20.64825477 9.63015529 20.64825477 7.875 16.8359375 C7 15 7 15 7 12 C6.01 11.67 5.02 11.34 4 11 C2.83203125 9.00390625 2.83203125 9.00390625 1.8125 6.5625 C1.46832031 5.75941406 1.12414062 4.95632812 0.76953125 4.12890625 C0 2 0 2 0 0 Z " fill="#869398" transform="translate(325,156)"/>
<path d="M0 0 C2.99609636 3.40465495 3.79674336 6.6745384 5 11 C5.79319095 13.2984213 6.60594886 15.59017724 7.4375 17.875 C12.61666667 32.23611111 12.61666667 32.23611111 14 38 C14.66 38 15.32 38 16 38 C18 44 18 44 18.625 46.19140625 C19.78024035 50.07065084 20.84271737 53.13974358 23.5625 56.1875 C26.08728154 59.10070946 27.0332124 61.30862915 28 65 C21.841507 62.06738429 19.99420445 57.64883748 17.19921875 51.58203125 C16.23622854 49.1217431 16.23622854 49.1217431 15 48 C14.896875 46.783125 14.79375 45.56625 14.6875 44.3125 C14.20352753 39.9951583 12.55562757 37.53277929 10 34 C7.93260313 29.70617573 6.59241431 25.58372292 5.53515625 20.97265625 C4.96707699 18.68624067 4.96707699 18.68624067 3.4375 15.4375 C1.94644835 11.87194172 1.42503486 8.82531374 1 5 C0.68033861 3.33065717 0.35268934 1.6626783 0 0 Z " fill="#7B8692" transform="translate(55,301)"/>
<path d="M0 0 C2 1.8125 2 1.8125 4 4 C4 4.99 4 5.98 4 7 C4.66 7 5.32 7 6 7 C6.309375 7.804375 6.61875 8.60875 6.9375 9.4375 C7.76335345 11.89080405 7.76335345 11.89080405 9 13 C9.04063832 14.66617115 9.042721 16.33388095 9 18 C9.99 18 10.98 18 12 18 C13.42497486 22.45304644 14.53743672 26.27055688 14 31 C11.63626375 34.03680013 8.53447686 35.40027375 5.125 37.0625 C4.09632813 37.56910156 3.06765625 38.07570313 2.0078125 38.59765625 C-0.63348282 39.82911732 -3.28172155 40.95180776 -6 42 C-2.15572738 37.67170274 2.18719489 35.93083076 7.41796875 33.66015625 C10.12219417 32.23449195 10.12219417 32.23449195 11.1015625 29.76953125 C10.95612274 25.80350082 9.1635699 22.95522947 7.1875 19.625 C3.49216678 13.27908746 1.32269643 7.27483037 0 0 Z " fill="#89929C" transform="translate(376,401)"/>
<path d="M0 0 C2.00144274 0.32455828 4.00092329 0.66117344 6 1 C7.28777344 1.16628906 7.28777344 1.16628906 8.6015625 1.3359375 C14.24768095 2.1603019 17.95210335 3.21325754 22.375 6.828125 C24.99626392 8.71845956 27.89082064 9.28249707 31 10 C32.485 10.495 32.485 10.495 34 11 C34 11.99 34 12.98 34 14 C34.56589844 14.10957031 35.13179688 14.21914063 35.71484375 14.33203125 C36.44832031 14.49058594 37.18179688 14.64914063 37.9375 14.8125 C38.66839844 14.96332031 39.39929688 15.11414062 40.15234375 15.26953125 C40.76207031 15.51058594 41.37179687 15.75164063 42 16 C42.495 17.485 42.495 17.485 43 19 C45.49759982 20.69882448 45.49759982 20.69882448 48 22 C44.51673943 22 43.35335667 21.23353267 40.375 19.5 C30.70196999 14.08464676 20.58853561 8.83517275 9.9375 5.65234375 C6.44051116 4.47493017 3.25833616 2.71803179 0 1 C0 0.67 0 0.34 0 0 Z " fill="#C1C7CE" transform="translate(336,46)"/>
<path d="M0 0 C4.75 0.875 4.75 0.875 7 2 C7 2.66 7 3.32 7 4 C7.56847656 4.18175781 8.13695312 4.36351562 8.72265625 4.55078125 C13.60701003 6.14084634 18.31029027 7.90459778 23 10 C23 10.66 23 11.32 23 12 C23.70125 12.0825 24.4025 12.165 25.125 12.25 C28 13 28 13 30.625 14.875 C34.49016379 17.30862165 38.00592297 18.23950547 42.4140625 19.2890625 C44.83799377 19.95546052 46.77676771 20.85400398 49 22 C50.216875 22.33 51.43375 22.66 52.6875 23 C53.780625 23.33 54.87375 23.66 56 24 C56.495 24.99 56.495 24.99 57 26 C51.91219335 24.99576079 46.86087941 23.87302236 41.8125 22.6875 C40.89791016 22.48705078 39.98332031 22.28660156 39.04101562 22.08007812 C38.16767578 21.87189453 37.29433594 21.66371094 36.39453125 21.44921875 C35.59893799 21.26705811 34.80334473 21.08489746 33.98364258 20.8972168 C31.43348022 19.74375875 31.11187756 18.49177184 30 16 C28.34080104 15.63128912 26.67225729 15.30404678 25 15 C23.66721647 14.06705153 22.33629031 13.13121328 21.01953125 12.17578125 C17.19072021 9.94662821 12.90630295 8.68522305 8.73046875 7.24609375 C7.82941406 6.83488281 6.92835938 6.42367188 6 6 C5.67 5.01 5.34 4.02 5 3 C2.49552484 1.78130071 2.49552484 1.78130071 0 1 C0 0.67 0 0.34 0 0 Z " fill="#6A7885" transform="translate(151,434)"/>
<path d="M0 0 C0.33 0 0.66 0 1 0 C2.57587515 6.7908169 3.32690616 13.23119598 3.37109375 20.1953125 C3.3820256 21.13823654 3.39295746 22.08116058 3.40422058 23.05265808 C3.43066698 26.07692258 3.43708023 29.10062551 3.4375 32.125 C3.43989685 33.15346039 3.4422937 34.18192078 3.44476318 35.24154663 C3.44504923 49.89357392 2.73827057 63.59082659 -1.36621094 77.74853516 C-2.41174879 81.46269158 -3.19042231 85.22827589 -4 89 C-4.33 89 -4.66 89 -5 89 C-5.125 81.25 -5.125 81.25 -4 79 C-3.72690486 76.47278622 -3.55442823 73.94588875 -3.37890625 71.41015625 C-3 69 -3 69 -1 66 C-0.50338746 63.61809909 -0.14460852 61.34818252 0.125 58.9375 C0.20919189 58.18887695 0.29338379 57.44025391 0.38012695 56.66894531 C1.21646293 47.88021511 1.18819941 39.07012901 1.1875 30.25 C1.18885956 29.11605301 1.18885956 29.11605301 1.19024658 27.959198 C1.18994991 25.76957807 1.18096183 23.58020341 1.16796875 21.390625 C1.16047607 20.11219727 1.1529834 18.83376953 1.14526367 17.51660156 C1.01044571 14.252874 0.59219507 11.20718848 0 8 C-0.11196073 5.32189925 -0.04625299 2.68267314 0 0 Z " fill="#65717D" transform="translate(482,221)"/>
<path d="M0 0 C8.33841998 5.0957011 9.60550489 15.82592321 11.8515625 24.6484375 C12.69088714 27.90636245 13.61995337 31.12894799 14.5859375 34.3515625 C14.86066895 35.27606201 15.13540039 36.20056152 15.41845703 37.15307617 C15.96054493 38.96825894 16.51062569 40.7810797 17.06982422 42.59106445 C18.65031563 47.92942098 19.28387241 52.43222974 19 58 C18.67 58 18.34 58 18 58 C17.87625 56.88625 17.7525 55.7725 17.625 54.625 C17.3534187 50.96896323 17.3534187 50.96896323 15 49 C14.42162501 46.3683938 13.92776714 43.78091683 13.5 41.125 C12.49392117 34.82844831 12.49392117 34.82844831 10 29 C9.32741333 26.66836622 8.66152556 24.3347961 8 22 C6.1837562 16.47080211 3.75142095 11.41561167 0.98828125 6.296875 C0 4 0 4 0 0 Z " fill="#808B97" transform="translate(462,153)"/>
<path d="M0 0 C0 3.20395416 -0.74335022 5.09399739 -2 8 C-2.66 8 -3.32 8 -4 8 C-4.19335938 8.74765625 -4.38671875 9.4953125 -4.5859375 10.265625 C-4.84632813 11.25046875 -5.10671875 12.2353125 -5.375 13.25 C-5.63023437 14.22453125 -5.88546875 15.1990625 -6.1484375 16.203125 C-6.90223288 18.67889331 -7.66948478 20.78586018 -9 23 C-9.66 23.33 -10.32 23.66 -11 24 C-12.32147371 26.93061517 -13.43948262 29.91890285 -14.5859375 32.921875 C-16.03215177 36.06998784 -17.73363865 38.39609547 -20 41 C-19.88590407 39.54077307 -19.75834456 38.08259402 -19.625 36.625 C-19.55539063 35.81289063 -19.48578125 35.00078125 -19.4140625 34.1640625 C-19 32 -19 32 -17 30 C-16.1526187 27.69088595 -15.47578656 25.35525327 -14.78125 22.99609375 C-14 21 -14 21 -12 20 C-11.34227572 16.97065509 -11.34227572 16.97065509 -11 14 C-10.01 14 -9.02 14 -8 14 C-7.87625 13.4225 -7.7525 12.845 -7.625 12.25 C-6.99351176 9.97664233 -6.11141809 8.0746471 -5 6 C-4.34 6 -3.68 6 -3 6 C-2.690625 5.195625 -2.38125 4.39125 -2.0625 3.5625 C-1 1 -1 1 0 0 Z " fill="#96A2AE" transform="translate(233,251)"/>
<path d="M0 0 C0.33 0 0.66 0 1 0 C0.67 2.97 0.34 5.94 0 9 C-0.66 9 -1.32 9 -2 9 C-4.03652242 12.91012305 -5.7493933 16.95675775 -7.5 21 C-12.46325879 32.46325879 -12.46325879 32.46325879 -16 36 C-16.9414298 37.53545874 -17.83634864 39.10021774 -18.6875 40.6875 C-19.34298828 41.89986328 -19.34298828 41.89986328 -20.01171875 43.13671875 C-20.50091797 44.05904297 -20.50091797 44.05904297 -21 45 C-21.70703125 43.390625 -21.70703125 43.390625 -22 41 C-20.63671875 37.984375 -20.63671875 37.984375 -18.6875 34.75 C-18.05199219 33.67234375 -17.41648438 32.5946875 -16.76171875 31.484375 C-16.18035156 30.66453125 -15.59898437 29.8446875 -15 29 C-14.34 29 -13.68 29 -13 29 C-12.86851562 28.43023437 -12.73703125 27.86046875 -12.6015625 27.2734375 C-10.76307627 20.32539214 -7.51136072 13.84341104 -4.3125 7.4375 C-4.00296387 6.81762207 -3.69342773 6.19774414 -3.37451172 5.55908203 C-1.13440148 1.13440148 -1.13440148 1.13440148 0 0 Z " fill="#B1BCC0" transform="translate(193,182)"/>
<path d="M0 0 C0.703125 1.609375 0.703125 1.609375 1 4 C-0.328125 6.953125 -0.328125 6.953125 -2.25 10.25 C-4.37742171 14.00999582 -6.38240428 17.60686038 -7.8125 21.6875 C-9 25 -9 25 -11 27 C-11.71247732 28.6476038 -12.37400383 30.31763529 -13 32 C-14.77777778 36.77777778 -14.77777778 36.77777778 -17 39 C-17.64767793 41.57061311 -17.64767793 41.57061311 -18 44 C-18.99 44 -19.98 44 -21 44 C-20.505 41.03 -20.505 41.03 -20 38 C-19.34 38 -18.68 38 -18 38 C-17.86207031 37.41863281 -17.72414062 36.83726562 -17.58203125 36.23828125 C-15.95165187 29.96843304 -13.30468052 24.54333507 -10 19 C-9.3197633 17.67353844 -8.64507739 16.34391123 -8 15 C-7.34 15 -6.68 15 -6 15 C-5.87625 14.44699219 -5.7525 13.89398438 -5.625 13.32421875 C-4.92702077 10.72860848 -4.00190851 8.3062208 -3 5.8125 C-2.4740625 4.49185547 -2.4740625 4.49185547 -1.9375 3.14453125 C-1 1 -1 1 0 0 Z " fill="#C5CDD2" transform="translate(237,95)"/>
<path d="M0 0 C-2.39954773 2.39954773 -3.52276618 2.45551706 -6.8203125 3.0078125 C-7.8198999 3.18618652 -8.8194873 3.36456055 -9.84936523 3.54833984 C-10.93032471 3.7386377 -12.01128418 3.92893555 -13.125 4.125 C-23.61830926 6.06710012 -33.51948501 8.88780632 -43.55712891 12.49658203 C-44.5063623 12.83544434 -45.4555957 13.17430664 -46.43359375 13.5234375 C-47.26947021 13.83200684 -48.10534668 14.14057617 -48.96655273 14.45849609 C-51 15 -51 15 -53 14 C-46.39065346 9.20822376 -39.76466628 6.99000336 -31.78515625 5.4296875 C-29.98723388 5.16123306 -29.98723388 5.16123306 -29 4 C-27.35729665 3.83900911 -25.7102171 3.72206047 -24.0625 3.625 C-20.08374633 3.31061661 -16.60009872 2.69023063 -12.8125 1.4375 C-8.34049563 -0.03647264 -4.68945971 -0.26052554 0 0 Z " fill="#C3C9CF" transform="translate(241,35)"/>
<path d="M0 0 C0.64453125 1.82421875 0.64453125 1.82421875 1 4 C-0.21592645 5.47882947 -1.44032047 6.95264476 -2.73046875 8.3671875 C-4.74423402 10.95719944 -5.22625769 13.84976344 -6 17 C-8.45376956 23.29445235 -8.45376956 23.29445235 -10.5 25.9375 C-12.36316635 28.49935373 -13.18919691 31.09864041 -14.15625 34.09765625 C-15.11172436 36.25189706 -16.31358485 37.38032952 -18 39 C-19.19027984 41.59915538 -19.19027984 41.59915538 -20 44 C-21.0326802 41.21176345 -21.04509293 40.1322726 -20.0625 37.25 C-19.711875 36.5075 -19.36125 35.765 -19 35 C-18.34 35 -17.68 35 -17 35 C-16.8453125 33.948125 -16.8453125 33.948125 -16.6875 32.875 C-15.90257613 29.59259109 -14.55636715 26.98822493 -13 24 C-12.690625 23.175 -12.38125 22.35 -12.0625 21.5 C-10.74089324 18.39033704 -8.87192054 15.80788081 -7 13 C-6.690625 12.21625 -6.38125 11.4325 -6.0625 10.625 C-4.5123328 6.79517514 -2.24656053 3.45558738 0 0 Z " fill="#77848D" transform="translate(254,59)"/>
<path d="M0 0 C-0.67804688 0.30292969 -1.35609375 0.60585938 -2.0546875 0.91796875 C-7.71867989 3.46754981 -13.29871081 6.11596807 -18.80859375 8.984375 C-20.87309336 9.94118409 -22.77890599 10.53453155 -25 11 C-25 11.66 -25 12.32 -25 13 C-26.07894531 13.41378906 -26.07894531 13.41378906 -27.1796875 13.8359375 C-30.80595099 15.33265013 -34.22534236 17.15192775 -37.6953125 18.9765625 C-40 20 -40 20 -43 20 C-41.75 18 -41.75 18 -40 16 C-38.68 16 -37.36 16 -36 16 C-36 15.34 -36 14.68 -36 14 C-35.01 13.67 -34.02 13.34 -33 13 C-32.67 12.34 -32.34 11.68 -32 11 C-30.22265625 10.21875 -30.22265625 10.21875 -28.0625 9.5 C-25.29544796 8.57597536 -24.10862631 8.10862631 -22 6 C-20.47646117 5.48460211 -18.93039909 5.03431555 -17.375 4.625 C-13.15203925 3.44110638 -9.56470772 1.8890624 -5.7890625 -0.328125 C-3.51115705 -1.18358294 -2.2609941 -0.77690546 0 0 Z " fill="#A5ADB4" transform="translate(188,51)"/>
<path d="M0 0 C0.33 1.32 0.66 2.64 1 4 C0.34 4 -0.32 4 -1 4 C-1 5.98 -1 7.96 -1 10 C-1.66 10 -2.32 10 -3 10 C-3 10.99 -3 11.98 -3 13 C-3.66 13 -4.32 13 -5 13 C-5.40798828 14.10214844 -5.40798828 14.10214844 -5.82421875 15.2265625 C-7.6497424 19.53261495 -10.34548923 23.16861254 -13 27 C-13.69222656 28.04027344 -13.69222656 28.04027344 -14.3984375 29.1015625 C-17.64394947 33.88131649 -17.64394947 33.88131649 -21 35 C-19.7303673 30.45048283 -18.02575982 27.59308978 -15 24 C-14.62875 23.2575 -14.2575 22.515 -13.875 21.75 C-13 20 -13 20 -11 19 C-10.01599167 17.26158528 -9.03482801 15.52134037 -8.08203125 13.765625 C-7 12 -7 12 -4.8125 9.9375 C-2.45276262 7.41502211 -2.3070046 5.37705057 -2 2 C-1.34 2 -0.68 2 0 2 C0 1.34 0 0.68 0 0 Z " fill="#B0B8C0" transform="translate(464,344)"/>
<path d="M0 0 C3.16154853 1.40513268 3.80476412 3.60065958 5.26171875 6.671875 C5.77089844 7.71859375 6.28007812 8.7653125 6.8046875 9.84375 C7.93298412 12.57943534 8.6264352 15.00858444 9.07421875 17.921875 C3.72748266 14.59822824 2.59872054 10.72241839 1.07421875 4.921875 C0.41421875 4.921875 -0.24578125 4.921875 -0.92578125 4.921875 C-2.20414629 6.39691158 -3.47729106 7.87789324 -4.69140625 9.40625 C-5.92578125 10.921875 -5.92578125 10.921875 -7.61328125 12.484375 C-9.37374586 14.41250291 -10.06793976 16.48032613 -10.92578125 18.921875 C-11.92578125 16.921875 -11.92578125 16.921875 -11.17578125 14.65625 C-9.85477574 11.76655044 -8.43669666 8.9670685 -6.92578125 6.171875 C-6.15234375 4.72554687 -6.15234375 4.72554687 -5.36328125 3.25 C-3.74847008 0.634708 -3.09012319 -0.12535997 0 0 Z " fill="#C0C7CE" transform="translate(266.92578125,40.078125)"/>
<path d="M0 0 C0.66 0.33 1.32 0.66 2 1 C1.3503125 1.5878125 1.3503125 1.5878125 0.6875 2.1875 C-1.1052386 3.96242294 -1.1052386 3.96242294 -2.2734375 6.33984375 C-4.2678555 9.41269139 -6.41064704 11.15145016 -9.3125 13.375 C-14.68380085 17.64649685 -19.12500008 21.82692321 -22.625 27.75 C-24.11868084 30.19420501 -25.62187547 31.44191841 -28 33 C-26.63553295 27.36304551 -23.94230628 24.32454047 -20 20.3125 C-18.91495922 19.18523475 -17.831562 18.05638466 -16.75 16.92578125 C-16.27046875 16.43505127 -15.7909375 15.94432129 -15.296875 15.4387207 C-13.77672675 13.82225613 -13.77672675 13.82225613 -12 11 C-11.01 10.67 -10.02 10.34 -9 10 C-8.67 9.01 -8.34 8.02 -8 7 C-6.15234375 5.17578125 -6.15234375 5.17578125 -3.9375 3.3125 C-3.20402344 2.68988281 -2.47054687 2.06726563 -1.71484375 1.42578125 C-1.14894531 0.95527344 -0.58304688 0.48476562 0 0 Z " fill="#A8B1B8" transform="translate(122,88)"/>
<path d="M0 0 C8.50634582 3.83080239 15.44163256 11.25264063 22 17.75 C22.55163818 18.29245361 23.10327637 18.83490723 23.67163086 19.39379883 C26.6576777 22.40293961 28.89918403 25.28707751 31 29 C32.62836738 30.7041054 34.28769752 32.38025441 36 34 C35.505 34.99 35.505 34.99 35 36 C33.72282148 34.77742768 32.45353969 33.54660355 31.1875 32.3125 C30.47980469 31.62800781 29.77210938 30.94351563 29.04296875 30.23828125 C27 28 27 28 25.61328125 25.62109375 C23.49876014 22.18563693 20.86181356 19.570338 18 16.75 C17.46632813 16.20859375 16.93265625 15.6671875 16.3828125 15.109375 C13.95302003 12.69167105 12.29461654 11.09820551 9 10 C8.34 9.01 7.68 8.02 7 7 C5.989375 6.525625 4.97875 6.05125 3.9375 5.5625 C1 4 1 4 0.125 1.8125 C0.08375 1.214375 0.0425 0.61625 0 0 Z " fill="#929CA7" transform="translate(403,82)"/>
<path d="M0 0 C7.59884796 -0.05071764 15.19765224 -0.08574107 22.79663086 -0.10986328 C25.38160839 -0.11991967 27.96657455 -0.13356649 30.55151367 -0.15087891 C34.26744392 -0.17514271 37.98322373 -0.18648684 41.69921875 -0.1953125 C42.85459641 -0.20563507 44.00997406 -0.21595764 45.20036316 -0.22659302 C46.28110611 -0.22674408 47.36184906 -0.22689514 48.4753418 -0.22705078 C49.89764351 -0.23371262 49.89764351 -0.23371262 51.34867859 -0.24050903 C54.24023118 0.02179206 56.34371742 0.86236505 59 2 C61.32597511 2.3813074 63.65912158 2.72460254 66 3 C66 3.33 66 3.66 66 4 C61.58332859 4.16358042 57.7349592 4.02609785 53.42822266 3.01806641 C47.77560592 1.8454166 42.28229581 1.65257065 36.5234375 1.5859375 C35.47217682 1.56657135 34.42091614 1.5472052 33.33779907 1.5272522 C30.01694569 1.46800698 26.69605659 1.42129322 23.375 1.375 C21.10805873 1.33676946 18.84113121 1.29771487 16.57421875 1.2578125 C11.04960214 1.16235153 5.52490111 1.07714705 0 1 C0 0.67 0 0.34 0 0 Z " fill="#D0D5DA" transform="translate(241,34)"/>
<path d="M0 0 C0.33 1.32 0.66 2.64 1 4 C0.34 4 -0.32 4 -1 4 C-1.33 5.65 -1.66 7.3 -2 9 C-2.66 9 -3.32 9 -4 9 C-4.2165625 9.8971875 -4.2165625 9.8971875 -4.4375 10.8125 C-4.8872439 12.56150404 -5.42892341 14.28677023 -6 16 C-6.66 16.33 -7.32 16.66 -8 17 C-8.84457608 19.25957265 -9.46890506 21.549302 -10.12109375 23.87109375 C-11 26 -11 26 -14 28 C-14.90747519 30.24343802 -14.90747519 30.24343802 -15.5 32.8125 C-16.54394741 36.62926012 -17.70668508 39.72383583 -20 43 C-21 41 -21 41 -20.328125 38.57421875 C-19.97234375 37.62160156 -19.6165625 36.66898438 -19.25 35.6875 C-18.90453125 34.74261719 -18.5590625 33.79773438 -18.203125 32.82421875 C-17.00660828 30.0155123 -15.7379857 27.51093197 -14 25 C-13.34 25 -12.68 25 -12 25 C-11.87882813 24.40832031 -11.75765625 23.81664062 -11.6328125 23.20703125 C-10.73255357 18.96196415 -9.79543379 14.97560339 -8 11 C-7.01 11 -6.02 11 -5 11 C-4.9175 10.484375 -4.835 9.96875 -4.75 9.4375 C-3.67859775 5.95544268 -1.86476395 3.12799115 0 0 Z " fill="#9AA5AB" transform="translate(215,139)"/>
<path d="M0 0 C2 1.3125 2 1.3125 4 3 C4 3.99 4 4.98 4 6 C4.66 6 5.32 6 6 6 C6.185625 7.051875 6.37125 8.10375 6.5625 9.1875 C7.89430405 14.68242486 10.76997449 19.37085309 13.5390625 24.2421875 C15 27 15 27 15 29 C15.66 29 16.32 29 17 29 C17 30.65 17 32.3 17 34 C14.09589118 31.3118072 12.21626727 28.9048784 10.52734375 25.33203125 C10.10259766 24.43806641 9.67785156 23.54410156 9.24023438 22.62304688 C8.81033203 21.69556641 8.38042969 20.76808594 7.9375 19.8125 C7.50373047 18.90435547 7.06996094 17.99621094 6.62304688 17.06054688 C3.99920047 11.48137879 1.79242154 5.8994876 0 0 Z " fill="#A2ACB4" transform="translate(359,367)"/>
<path d="M0 0 C2.6013358 1.3006679 2.64188008 2.30080022 3.5625 5 C4.39037842 7.73933017 4.39037842 7.73933017 6 10 C6.15958101 11.35052814 6.27728276 12.70609162 6.375 14.0625 C6.69657918 17.43117369 7.18775286 19.43558662 8.5625 22.625 C11.08897692 28.63458103 10.22496731 35.60092987 10 42 C9.67 42 9.34 42 9 42 C8.82984375 40.9584375 8.6596875 39.916875 8.484375 38.84375 C6.99727414 29.96914947 5.17873611 21.27129255 2.91796875 12.5625 C1.84361465 8.39309176 0.90203673 4.20950474 0 0 Z " fill="#D2D6DB" transform="translate(476,188)"/>
<path d="M0 0 C1.32 0 2.64 0 4 0 C4.433125 0.94875 4.86625 1.8975 5.3125 2.875 C6.79302201 6.20041937 6.79302201 6.20041937 10 8 C10.73046875 10.1640625 10.73046875 10.1640625 11.1875 12.625 C11.34605469 13.44226563 11.50460937 14.25953125 11.66796875 15.1015625 C11.77753906 15.72804687 11.88710938 16.35453125 12 17 C12.66 17 13.32 17 14 17 C14.66 19.64 15.32 22.28 16 25 C11.51008847 21.33717744 10.35697843 18.73153649 9.65234375 12.98828125 C9.18668582 10.81080459 9.18668582 10.81080459 7.01953125 9.89453125 C6.35308594 9.59933594 5.68664062 9.30414063 5 9 C3.75 6.375 3.75 6.375 3 4 C1.68 4.33 0.36 4.66 -1 5 C-0.67 3.35 -0.34 1.7 0 0 Z " fill="#ABB1B9" transform="translate(264,186)"/>
<path d="M0 0 C-1.82983141 0.65568959 -3.6640921 1.29902213 -5.5 1.9375 C-6.5209375 2.29714844 -7.541875 2.65679687 -8.59375 3.02734375 C-15.54499742 5.01227564 -22.33040847 5.13839958 -29.5 5.0625 C-30.32242187 5.05798828 -31.14484375 5.05347656 -31.9921875 5.04882812 C-33.99482396 5.03718489 -35.99742227 5.01925556 -38 5 C-38 4.67 -38 4.34 -38 4 C-37.32533691 3.91959473 -36.65067383 3.83918945 -35.95556641 3.75634766 C-32.84487728 3.38327784 -29.73495081 3.00417337 -26.625 2.625 C-25.56410156 2.49867188 -24.50320313 2.37234375 -23.41015625 2.2421875 C-17.56744178 1.52529002 -11.86376558 0.64504646 -6.13427734 -0.71728516 C-3.80220547 -1.02620065 -2.22410321 -0.71360588 0 0 Z " fill="#C3C9CF" transform="translate(322,463)"/>
<path d="M0 0 C4.93436689 4.19421186 7.38325082 9.67832092 8 16 C8.99 16.33 9.98 16.66 11 17 C12.203125 19.21484375 12.203125 19.21484375 13.25 21.9375 C13.60578125 22.83339844 13.9615625 23.72929687 14.328125 24.65234375 C15 27 15 27 14 29 C10.28674292 25.78398253 8.75067257 22.59301386 6.9375 18.0625 C5.56059693 14.64763431 4.25446253 11.42410422 2.359375 8.265625 C0.72008814 5.53348024 0.365132 3.14013523 0 0 Z " fill="#B7C0C4" transform="translate(412,328)"/>
<path d="M0 0 C0.66 0 1.32 0 2 0 C3.07403184 5.60094292 3.3151386 11.12742762 3.51757812 16.81054688 C3.71606064 21.01612932 4.34270557 24.09213842 6 28 C6.27876518 30.0959986 6.48588744 32.20262611 6.625 34.3125 C6.69976562 35.38113281 6.77453125 36.44976562 6.8515625 37.55078125 C6.90054688 38.35902344 6.94953125 39.16726563 7 40 C2.3086967 32.96304506 1.71388917 23.33360259 1.2109375 15.046875 C1.2183421 13.0080435 1.2183421 13.0080435 0 12 C-0.07244053 9.98035801 -0.08377188 7.95832876 -0.0625 5.9375 C-0.05347656 4.83277344 -0.04445312 3.72804688 -0.03515625 2.58984375 C-0.02355469 1.73519531 -0.01195312 0.88054687 0 0 Z " fill="#6D7A87" transform="translate(50,264)"/>
<path d="M0 0 C6.77912845 4.98465327 10.95385971 10.23234227 14 18 C14.66 18.66 15.32 19.32 16 20 C15.625 22.125 15.625 22.125 15 24 C9.43243243 16.73873874 9.43243243 16.73873874 7.5 13.4375 C5.71533149 10.53741368 3.54642351 8.21070895 1.20703125 5.74609375 C0 4 0 4 0 0 Z " fill="#8C96A1" transform="translate(439,118)"/>
<path d="M0 0 C0.66 0 1.32 0 2 0 C2.556875 1.423125 2.556875 1.423125 3.125 2.875 C4.89841758 7.03830889 7.22707197 10.79718819 9.58203125 14.65234375 C13.02478031 20.35232223 17 27.19024327 17 34 C13.70390688 31.07626887 12.2391376 28.67265619 10.875 24.5 C9.58156779 20.58694571 9.58156779 20.58694571 7.8828125 16.84375 C7 15 7 15 7 12 C6.01 11.67 5.02 11.34 4 11 C2.83203125 9.00390625 2.83203125 9.00390625 1.8125 6.5625 C1.46832031 5.75941406 1.12414062 4.95632812 0.76953125 4.12890625 C0 2 0 2 0 0 Z " fill="#A8B2B7" transform="translate(325,156)"/>
<path d="M0 0 C2.91786964 0.28218081 5.833918 0.57534127 8.75 0.875 C9.575 0.95363281 10.4 1.03226562 11.25 1.11328125 C12.04921875 1.19707031 12.8484375 1.28085937 13.671875 1.3671875 C14.4050293 1.44050293 15.13818359 1.51381836 15.89355469 1.58935547 C18.20516442 2.03999612 19.91786229 2.92155944 22 4 C24.81496741 4.45275278 24.81496741 4.45275278 27.75 4.625 C28.73484375 4.69976562 29.7196875 4.77453125 30.734375 4.8515625 C31.48203125 4.90054687 32.2296875 4.94953125 33 5 C33 5.66 33 6.32 33 7 C34.98 7 36.96 7 39 7 C39 7.33 39 7.66 39 8 C31.25 8.125 31.25 8.125 29 7 C27.31381513 6.89331695 25.62580464 6.81502411 23.9375 6.75 C15.60986994 6.15154668 7.90329586 3.53766964 0 1 C0 0.67 0 0.34 0 0 Z " fill="#9BA4AD" transform="translate(209,460)"/>
<path d="M0 0 C0 3 0 3 -1 6 C-1.66 6 -2.32 6 -3 6 C-3.66 8.64 -4.32 11.28 -5 14 C-5.66 14 -6.32 14 -7 14 C-7.04125 14.99 -7.0825 15.98 -7.125 17 C-7.79620952 21.82678613 -10.52040322 25.66755034 -14 29 C-14.99 29 -15.98 29 -17 29 C-17 28.34 -17 27.68 -17 27 C-16.01 26.67 -15.02 26.34 -14 26 C-12.82345413 23.81214266 -12.82345413 23.81214266 -11.9375 21.1875 C-10.77223036 18.01927693 -9.56894978 14.99146424 -8 12 C-7.34 12 -6.68 12 -6 12 C-5.9071875 10.4221875 -5.9071875 10.4221875 -5.8125 8.8125 C-4.86591384 4.3708265 -3.40843742 2.88406243 0 0 Z " fill="#858F98" transform="translate(108,351)"/>
<path d="M0 0 C0.39971615 5.06809914 -0.62608612 7.72843507 -3.3125 12 C-5.7511551 15.92638809 -7.98663933 19.83698963 -10 24 C-10.75 22.4375 -10.75 22.4375 -11 20 C-10.06958485 18.33854438 -9.12815987 16.6815631 -8.11328125 15.0703125 C-6.43608383 11.9513138 -5.66396474 8.65585895 -4.80859375 5.234375 C-4.02335418 3.06453427 -2.69867809 0 0 0 Z " fill="#98A2AA" transform="translate(76,147)"/>
<path d="M0 0 C2.2303265 2.06328016 3.68051002 3.97701464 5.04296875 6.6875 C5.56987305 7.73550781 5.56987305 7.73550781 6.10742188 8.8046875 C6.46384766 9.52914062 6.82027344 10.25359375 7.1875 11 C7.55552734 11.72445312 7.92355469 12.44890625 8.30273438 13.1953125 C8.82383789 14.24332031 8.82383789 14.24332031 9.35546875 15.3125 C9.67153076 15.94800781 9.98759277 16.58351562 10.31323242 17.23828125 C11 19 11 19 11 22 C11.99 22.33 12.98 22.66 14 23 C14.33 25.31 14.66 27.62 15 30 C12.40927177 28.70463589 12.1617878 27.57186109 10.9765625 24.95703125 C10.595 24.13009766 10.2134375 23.30316406 9.8203125 22.45117188 C9.42585938 21.58041016 9.03140625 20.70964844 8.625 19.8125 C5.59253498 12.98901049 5.59253498 12.98901049 1.7109375 6.63671875 C0 4 0 4 0 0 Z " fill="#78838C" transform="translate(280,213)"/>
<path d="M0 0 C1.27897205 3.56636436 0.70636923 5.37736824 -0.75 8.8125 C-3.44633171 15.72185 -4.70285833 22.71831835 -6 30 C-6.66 30 -7.32 30 -8 30 C-8.33 30.99 -8.66 31.98 -9 33 C-5.68738136 9.35158357 -5.68738136 9.35158357 0 0 Z " fill="#97A1A9" transform="translate(64,171)"/>
<path d="M0 0 C6.64593252 0.83074156 12.99280052 1.89950995 19 5 C20.216875 5.33 21.43375 5.66 22.6875 6 C23.780625 6.33 24.87375 6.66 26 7 C26.33 7.66 26.66 8.32 27 9 C21.9054485 7.99951668 16.86067628 6.83569752 11.8125 5.625 C10.44061523 5.31175781 10.44061523 5.31175781 9.04101562 4.9921875 C8.16767578 4.78078125 7.29433594 4.569375 6.39453125 4.3515625 C5.20114136 4.07046631 5.20114136 4.07046631 3.98364258 3.78369141 C2 3 2 3 0 0 Z " fill="#808C97" transform="translate(181,451)"/>
<path d="M0 0 C4.53736256 1.51245419 5.94720686 4.91722253 8 9 C9.17587548 11.74465166 10.25793087 14.51922371 11.3125 17.3125 C11.71239136 18.37126343 11.71239136 18.37126343 12.12036133 19.45141602 C13.20690431 22.43039337 14 24.80450811 14 28 C10.73382359 23.52412862 8.53295778 18.89363383 6.3046875 13.828125 C4.70279029 10.35574902 2.85436235 7.07219194 0.91796875 3.77734375 C0 2 0 2 0 0 Z " fill="#B7BFC4" transform="translate(397,300)"/>
<path d="M0 0 C5.54911377 3.39112508 7.17182811 8.03101879 9 14 C9.50175816 16.36244466 9.7903068 18.58852822 10 21 C6.77534841 18.29129266 5.14395221 14.76746282 3.3125 11.0625 C2.99216797 10.44181641 2.67183594 9.82113281 2.34179688 9.18164062 C0.64673927 5.78791121 0 3.87452418 0 0 Z " fill="#C8CED4" transform="translate(462,153)"/>
<path d="M0 0 C3.32724704 2.6934857 4.34771136 6.14465984 6 10 C6.804375 10.7115625 6.804375 10.7115625 7.625 11.4375 C9.99831563 14.13444958 9.71340556 17.50354787 10 21 C7 20 7 20 5.3125 17.125 C4 14 4 14 4 11 C3.34 11 2.68 11 2 11 C0.80712589 7.12315913 0 4.08378077 0 0 Z " fill="#AEB9BF" transform="translate(298,100)"/>
<path d="M0 0 C1.36845435 3.69482675 0.54997882 5.47405481 -1 9 C-1.81225372 10.75988305 -2.64569762 12.51014027 -3.5 14.25 C-3.9228125 15.12140625 -4.345625 15.9928125 -4.78125 16.890625 C-6 19 -6 19 -8 20 C-9.05352843 22.30965848 -10.05719096 24.6429774 -11 27 C-11.66796875 25.2890625 -11.66796875 25.2890625 -12 23 C-10.92578125 20.7734375 -10.92578125 20.7734375 -9.3125 18.375 C-6.57730977 14.09134941 -4.60331088 9.89413455 -2.859375 5.12890625 C-2 3 -2 3 0 0 Z " fill="#8D98A0" transform="translate(137,291)"/>
<path d="M0 0 C0.99 0.495 0.99 0.495 2 1 C2 1.66 2 2.32 2 3 C2.66 3 3.32 3 4 3 C4.27263672 4.01320312 4.27263672 4.01320312 4.55078125 5.046875 C4.80214844 5.93890625 5.05351562 6.8309375 5.3125 7.75 C5.55613281 8.63171875 5.79976563 9.5134375 6.05078125 10.421875 C7.02225302 13.06044029 8.31522622 14.77916183 10 17 C9.6875 19.25 9.6875 19.25 9 21 C3.55126095 15.35666312 1.35863168 7.5754009 0 0 Z " fill="#B9C2C9" transform="translate(313,130)"/>
<path d="M0 0 C2.61413053 1.30706526 3.03623102 2.67478833 4.375 5.25 C5.84806069 8.00058234 7.20724216 10.2546118 9.1875 12.6875 C11.2653668 15.33857144 12.10023025 17.77582506 13 21 C6.15378586 17.73989803 3.75119389 11.81973469 1 5 C0.61584373 3.34430895 0.26286192 1.67922378 0 0 Z " fill="#B6BEC5" transform="translate(70,345)"/>
<path d="M0 0 C0 3.78769618 -1.2238017 6.06748397 -2.8125 9.5 C-3.33457031 10.6446875 -3.85664063 11.789375 -4.39453125 12.96875 C-5.77578367 15.57666212 -6.80043763 17.11982614 -9 19 C-9.66 19.66 -10.32 20.32 -11 21 C-11 19.35 -11 17.7 -11 16 C-10.34 15.67 -9.68 15.34 -9 15 C-8.09274566 12.88672575 -8.09274566 12.88672575 -7.375 10.4375 C-7.11460937 9.61121094 -6.85421875 8.78492188 -6.5859375 7.93359375 C-6.39257812 7.29550781 -6.19921875 6.65742188 -6 6 C-5.01 6 -4.02 6 -3 6 C-2.87625 5.38125 -2.7525 4.7625 -2.625 4.125 C-2 2 -2 2 0 0 Z " fill="#ADB8C0" transform="translate(155,405)"/>
<path d="M0 0 C1.02674622 2.67709904 1.04887465 3.85025165 0.14453125 6.62109375 C-2.18363645 11.54370054 -4.37878302 15.87930482 -8 20 C-8.70885894 21.31138904 -9.39456452 22.63777017 -10 24 C-10.33 23.34 -10.66 22.68 -11 22 C-10.07421875 20.01171875 -10.07421875 20.01171875 -8.6875 17.6875 C-6.84183429 14.5032196 -5.322211 11.43774859 -4 8 C-2.70283341 5.31481469 -1.35726895 2.65523975 0 0 Z " fill="#B1BAC0" transform="translate(124,318)"/>
<path d="M0 0 C0.66 0 1.32 0 2 0 C2 1.32 2 2.64 2 4 C2.66 4 3.32 4 4 4 C4 6.64 4 9.28 4 12 C-5.24 12 -14.48 12 -24 12 C-24 11.67 -24 11.34 -24 11 C-15.09 11 -6.18 11 3 11 C3 9.35 3 7.7 3 6 C2.01 6 1.02 6 0 6 C0 4.02 0 2.04 0 0 Z " fill="#515D6A" transform="translate(318,287)"/>
<path d="M0 0 C-4.50353262 1.75747614 -8.17639811 2.19294408 -13 2 C-13 2.66 -13 3.32 -13 4 C-19.30760257 5.64681249 -25.51527007 7.26309887 -32 8 C-28.77248973 5.84832649 -25.58480621 4.6966524 -21.9375 3.5 C-21.26936279 3.28005371 -20.60122559 3.06010742 -19.9128418 2.83349609 C-5.65011293 -1.76008032 -5.65011293 -1.76008032 0 0 Z " fill="#707D88" transform="translate(231,39)"/>
<path d="M0 0 C1.61032428 4.83097285 -0.01950776 8.49156239 -2 13 C-3.8489193 15.6333093 -5.73412032 17.73412032 -8 20 C-7.45316966 15.40662511 -6.12988056 12.08227107 -4 8 C-3.31363375 5.76474965 -3.31363375 5.76474965 -3 4 C-2.34 4 -1.68 4 -1 4 C-0.67 2.68 -0.34 1.36 0 0 Z " fill="#8A98A2" transform="translate(164,385)"/>
<path d="M0 0 C0 6.91256153 -3.98589628 13.55228781 -8 19 C-9.04449911 15.86650268 -8.93423645 15.01031744 -8 12 C-7.34 12 -6.68 12 -6 12 C-5.67 9.69 -5.34 7.38 -5 5 C-4.34 5 -3.68 5 -3 5 C-2.690625 4.360625 -2.38125 3.72125 -2.0625 3.0625 C-1 1 -1 1 0 0 Z " fill="#CCD4DC" transform="translate(238,238)"/>
<path d="M0 0 C2 1.8125 2 1.8125 4 4 C4 4.99 4 5.98 4 7 C4.66 7 5.32 7 6 7 C6.309375 7.804375 6.61875 8.60875 6.9375 9.4375 C7.76335345 11.89080405 7.76335345 11.89080405 9 13 C9.04063832 14.66617115 9.042721 16.33388095 9 18 C9.99 18 10.98 18 12 18 C12 19.65 12 21.3 12 23 C8.30094748 19.96149258 6.80962677 16.6937468 5.015625 12.38671875 C4.02190159 10.05146874 2.91572784 7.81596685 1.75 5.5625 C0 2 0 2 0 0 Z " fill="#BEC6D0" transform="translate(376,401)"/>
<path d="M0 0 C0.93423645 3.01031744 1.04449911 3.86650268 0 7 C-0.99 7.495 -0.99 7.495 -2 8 C-2.70626239 9.98636298 -3.36893571 11.98848259 -4 14 C-4.63815344 15.34721283 -5.29325371 16.68747118 -6 18 C-6.66 18 -7.32 18 -8 18 C-8 19.65 -8 21.3 -8 23 C-8.66 23 -9.32 23 -10 23 C-8.87663168 17.38315841 -7.13431567 13.05824745 -4.2421875 8.12109375 C-2.69425806 5.47793122 -1.3410842 2.75275178 0 0 Z " fill="#C7CDD3" transform="translate(147,274)"/>
<path d="M0 0 C0 3.20395416 -0.74335022 5.09399739 -2 8 C-2.66 8 -3.32 8 -4 8 C-4.4021875 9.3303125 -4.4021875 9.3303125 -4.8125 10.6875 C-6.43651394 15.21764415 -8.41777686 18.75894097 -12 22 C-11.67 19.36 -11.34 16.72 -11 14 C-10.01 14 -9.02 14 -8 14 C-7.87625 13.4225 -7.7525 12.845 -7.625 12.25 C-6.99351176 9.97664233 -6.11141809 8.0746471 -5 6 C-4.34 6 -3.68 6 -3 6 C-2.690625 5.195625 -2.38125 4.39125 -2.0625 3.5625 C-1 1 -1 1 0 0 Z " fill="#A8B4BF" transform="translate(233,251)"/>
<path d="M0 0 C2.7920147 1.39600735 3.00162933 3.00416384 4.125 5.875 C4.47820312 6.75929688 4.83140625 7.64359375 5.1953125 8.5546875 C6 11 6 11 6 14 C6.99 14.33 7.98 14.66 9 15 C10.1875 18.0625 10.1875 18.0625 11 21 C6.93302857 17.39782531 4.53170716 13.69984533 2.015625 8.890625 C1.14138444 7.045287 1.14138444 7.045287 0 6 C-0.04080783 4.00041636 -0.04254356 1.99954746 0 0 Z " fill="#BFC4CC" transform="translate(427,357)"/>
<path d="M0 0 C3.43321063 3.0435743 5.0903689 5.88991022 6.8125 10.125 C7.25207031 11.17945313 7.69164062 12.23390625 8.14453125 13.3203125 C9 16 9 16 8 18 C3.35058518 12.85243359 0 6.99826151 0 0 Z " fill="#7F8B94" transform="translate(309,269)"/>
<path d="M0 0 C0 3 0 3 -1.25 5.0625 C-2.81507904 7.68959696 -3.85675157 10.09252586 -4.9375 12.9375 C-6.53822481 17.07219073 -8.37514085 20.43769116 -11 24 C-11 21.16032769 -10.59732819 18.76264289 -10 16 C-9.01 16 -8.02 16 -7 16 C-6.938125 15.195625 -6.87625 14.39125 -6.8125 13.5625 C-5.7367866 8.84591049 -3.49658593 3.49658593 0 0 Z " fill="#6D7983" transform="translate(152,262)"/>
<path d="M0 0 C0 3.78713193 -1.26892594 5.83354401 -3 9.1875 C-3.556875 10.27417969 -4.11375 11.36085937 -4.6875 12.48046875 C-5.120625 13.31191406 -5.55375 14.14335937 -6 15 C-7.5625 13.1875 -7.5625 13.1875 -9 11 C-8.00102287 8.00306862 -7.34869747 6.97290587 -5 5 C-4.34 5 -3.68 5 -3 5 C-2.814375 4.0409375 -2.814375 4.0409375 -2.625 3.0625 C-2.41875 2.381875 -2.2125 1.70125 -2 1 C-1.34 0.67 -0.68 0.34 0 0 Z " fill="#5C6A74" transform="translate(170,227)"/>
<path d="M0 0 C4.9697891 0.6260543 9.21138567 2.06563203 13.8125 3.9375 C14.49248047 4.20240234 15.17246094 4.46730469 15.87304688 4.74023438 C20.87499513 6.74999025 20.87499513 6.74999025 22 9 C19.9140849 8.57497973 17.83132009 8.13447954 15.75 7.6875 C14.58984375 7.44386719 13.4296875 7.20023438 12.234375 6.94921875 C9.10174045 6.02985861 7.4596857 5.06437907 5 3 C3.35202764 2.28837557 1.68834592 1.60968047 0 1 C0 0.67 0 0.34 0 0 Z " fill="#7E8A95" transform="translate(336,46)"/>
<path d="M0 0 C1.09731445 0.01353516 1.09731445 0.01353516 2.21679688 0.02734375 C3.99884298 0.05063847 5.78071759 0.0864981 7.5625 0.125 C7.5625 0.455 7.5625 0.785 7.5625 1.125 C-0.1902507 2.64037186 -7.53792938 3.40490605 -15.4375 3.125 C-15.4375 2.795 -15.4375 2.465 -15.4375 2.125 C-10.12218311 0.35089949 -5.58131195 -0.1327668 0 0 Z " fill="#828D97" transform="translate(249.4375,34.875)"/>
<path d="M0 0 C1.8675621 3.7351242 0.05125375 8.11971784 -1 12 C-2.18841941 15.07723809 -3.53081066 18.04735734 -5 21 C-6.4245373 16.52581026 -5.0646781 13.12004752 -3.625 8.8125 C-3.39039063 8.07580078 -3.15578125 7.33910156 -2.9140625 6.58007812 C-1.15836522 1.15836522 -1.15836522 1.15836522 0 0 Z " fill="#8D97A2" transform="translate(476,311)"/>
<path d="M0 0 C4.80677821 0.60084728 9.73340918 1.61722613 14 4 C14.33 4.99 14.66 5.98 15 7 C17.49759982 8.69882448 17.49759982 8.69882448 20 10 C16.37112059 10 14.82351965 8.97021656 11.6875 7.1875 C7.83046552 5.02367297 3.97616382 2.93434997 0 1 C0 0.67 0 0.34 0 0 Z " fill="#929CA5" transform="translate(364,58)"/>
<path d="M0 0 C0.66 0.33 1.32 0.66 2 1 C1.3503125 1.5878125 1.3503125 1.5878125 0.6875 2.1875 C-1.10669113 3.94994113 -1.10669113 3.94994113 -2.1875 6.3125 C-4.76498843 10.13429319 -8.24119553 12.40187149 -12 15 C-11.33333333 13.66666667 -10.66666667 12.33333333 -10 11 C-9.71382813 10.33484375 -9.42765625 9.6696875 -9.1328125 8.984375 C-7.72862488 6.52462566 -6.03987629 5.0657027 -3.875 3.25 C-3.15054688 2.63640625 -2.42609375 2.0228125 -1.6796875 1.390625 C-0.84824219 0.70226562 -0.84824219 0.70226562 0 0 Z " fill="#939DA6" transform="translate(122,88)"/>
<path d="M0 0 C2.2517495 0.25588062 4.50140014 0.53027777 6.75 0.8125 C8.00296875 0.96332031 9.2559375 1.11414062 10.546875 1.26953125 C13.91049761 1.9810668 15.51049181 2.70537755 18 5 C11.85244834 5.335321 6.61879081 4.68029846 1 2 C0.67 1.34 0.34 0.68 0 0 Z " fill="#65737F" transform="translate(317,41)"/>
<path d="M0 0 C0 3 0 3 -1 6 C-1.99 6.495 -1.99 6.495 -3 7 C-4.02335117 8.94241393 -4.02335117 8.94241393 -4.9375 11.25 C-6.3989093 14.6818488 -7.97218209 17.85688224 -10 21 C-10.33 20.34 -10.66 19.68 -11 19 C-10.0150807 16.65226185 -8.97663341 14.44402103 -7.8125 12.1875 C-7.50763672 11.57068359 -7.20277344 10.95386719 -6.88867188 10.31835938 C-4.95687499 6.50741415 -2.781747 3.23817555 0 0 Z " fill="#697680" transform="translate(232,104)"/>
<path d="M0 0 C0.71484375 1.578125 0.71484375 1.578125 1 4 C-0.05709499 6.38494456 -1.1317889 8.51234067 -2.4375 10.75 C-2.77587891 11.35199219 -3.11425781 11.95398438 -3.46289062 12.57421875 C-4.29768265 14.05568065 -5.14741494 15.52870608 -6 17 C-6.66 17 -7.32 17 -8 17 C-8.33 18.32 -8.66 19.64 -9 21 C-9.33 20.34 -9.66 19.68 -10 19 C-9.0625 16.875 -9.0625 16.875 -8 15 C-7.34 15 -6.68 15 -6 15 C-5.87625 14.44699219 -5.7525 13.89398438 -5.625 13.32421875 C-4.92702077 10.72860848 -4.00190851 8.3062208 -3 5.8125 C-2.649375 4.93207031 -2.29875 4.05164063 -1.9375 3.14453125 C-1 1 -1 1 0 0 Z " fill="#BDC4CB" transform="translate(237,95)"/>
<path d="M0 0 C0.99 0.33 1.98 0.66 3 1 C3 1.66 3 2.32 3 3 C3.66 3 4.32 3 5 3 C5.99 6.63 6.98 10.26 8 14 C5.86528918 11.86528918 4.08771962 9.95611444 2.3125 7.5625 C1.87550781 6.98628906 1.43851562 6.41007812 0.98828125 5.81640625 C0 4 0 4 0 0 Z " fill="#616F76" transform="translate(386,274)"/>
<path d="M0 0 C0.66 0 1.32 0 2 0 C3.03590199 5.05002222 3.10251672 9.87416389 3 15 C1.51171875 13.88671875 1.51171875 13.88671875 0 12 C-0.29296875 9.08203125 -0.29296875 9.08203125 -0.1875 5.8125 C-0.16042969 4.72582031 -0.13335937 3.63914062 -0.10546875 2.51953125 C-0.07066406 1.68808594 -0.03585938 0.85664063 0 0 Z " fill="#667581" transform="translate(50,264)"/>
<path d="M0 0 C0.33 1.32 0.66 2.64 1 4 C0.34 4 -0.32 4 -1 4 C-1 4.99 -1 5.98 -1 7 C-1.66 7 -2.32 7 -3 7 C-3.12117187 7.56589844 -3.24234375 8.13179687 -3.3671875 8.71484375 C-3.53476563 9.44832031 -3.70234375 10.18179688 -3.875 10.9375 C-4.03742188 11.66839844 -4.19984375 12.39929688 -4.3671875 13.15234375 C-5 15 -5 15 -7 16 C-7 14.02 -7 12.04 -7 10 C-6.34 10 -5.68 10 -5 10 C-5 8.68 -5 7.36 -5 6 C-4.34 6 -3.68 6 -3 6 C-2.690625 5.38125 -2.38125 4.7625 -2.0625 4.125 C-1.375 2.75 -0.6875 1.375 0 0 Z " fill="#C0C9D2" transform="translate(246,222)"/>
<path d="M0 0 C1.32 0 2.64 0 4 0 C8.06153846 6.4 8.06153846 6.4 7.75 9.4375 C7.5025 9.953125 7.255 10.46875 7 11 C4.125 6.25 4.125 6.25 3 4 C1.68 4.33 0.36 4.66 -1 5 C-0.67 3.35 -0.34 1.7 0 0 Z " fill="#848D95" transform="translate(264,186)"/>
<path d="M0 0 C0.99 0 1.98 0 3 0 C4.0044134 2.2898234 5.00367612 4.5816599 6 6.875 C6.28617187 7.52597656 6.57234375 8.17695313 6.8671875 8.84765625 C9 13.7734375 9 13.7734375 9 16 C8.34 16 7.68 16 7 16 C5.82845707 13.71070947 4.66261926 11.41881638 3.5 9.125 C3.16613281 8.47402344 2.83226562 7.82304687 2.48828125 7.15234375 C0 2.2265625 0 2.2265625 0 0 Z " fill="#65717C" transform="translate(339,181)"/>
<path d="M0 0 C1.32 0.33 2.64 0.66 4 1 C3.01 1.33 2.02 1.66 1 2 C1 2.66 1 3.32 1 4 C-0.60256108 4.50512244 -2.20711792 5.00391627 -3.8125 5.5 C-5.15248047 5.91765625 -5.15248047 5.91765625 -6.51953125 6.34375 C-9 7 -9 7 -12 7 C-9.63907689 4.26629955 -7.43461272 3.08902355 -4 2 C-2.68 2 -1.36 2 0 2 C0 1.34 0 0.68 0 0 Z " fill="#616F7D" transform="translate(367,441)"/>
<path d="M0 0 C0.66 0.33 1.32 0.66 2 1 C1.3503125 2.0209375 1.3503125 2.0209375 0.6875 3.0625 C-1.12350439 6.04591052 -1.12350439 6.04591052 -2.4375 9.6875 C-4 13 -4 13 -6.1875 14.4375 C-7.0846875 14.7159375 -7.0846875 14.7159375 -8 15 C-6.7303673 10.45048283 -5.02575982 7.59308978 -2 4 C-1.29114106 2.68861096 -0.60543548 1.36222983 0 0 Z " fill="#73808C" transform="translate(451,364)"/>
<path d="M0 0 C1.33332095 2.6666419 0.67102033 4.16680303 0 7 C-0.66 7 -1.32 7 -2 7 C-2.185625 8.2065625 -2.185625 8.2065625 -2.375 9.4375 C-2.58125 10.283125 -2.7875 11.12875 -3 12 C-3.99 12.495 -3.99 12.495 -5 13 C-6.13350534 15.01669827 -6.13350534 15.01669827 -7 17 C-7.33 16.34 -7.66 15.68 -8 15 C-7.06421005 12.64018187 -6.06652192 10.30368736 -5 8 C-4.34 8 -3.68 8 -3 8 C-2.690625 6.865625 -2.38125 5.73125 -2.0625 4.5625 C-1 1 -1 1 0 0 Z " fill="#B1BBC1" transform="translate(167,234)"/>
<path d="M0 0 C0 6.31855156 -3.9474671 11.65224198 -7 17 C-7.33 16.34 -7.66 15.68 -8 15 C-7.30547871 13.280233 -6.60122821 11.56301274 -5.82421875 9.87890625 C-4.86715959 7.79925048 -4.86715959 7.79925048 -4 4.6875 C-3 2 -3 2 0 0 Z " fill="#CDD3DA" transform="translate(259,196)"/>
<path d="M0 0 C0.85276722 2.41707906 1.12087895 3.64003451 0.29296875 6.10546875 C-0.25423828 7.13607422 -0.25423828 7.13607422 -0.8125 8.1875 C-1.16957031 8.88230469 -1.52664063 9.57710937 -1.89453125 10.29296875 C-3 12 -3 12 -5 13 C-5.72159424 14.64363134 -6.39351421 16.31050386 -7 18 C-8 16 -8 16 -7.2578125 13.73828125 C-5.91339634 10.81146221 -4.43623471 8.00451046 -2.875 5.1875 C-2.33617187 4.21167969 -1.79734375 3.23585937 -1.2421875 2.23046875 C-0.83226562 1.49441406 -0.42234375 0.75835937 0 0 Z " fill="#8995A1" transform="translate(263,41)"/>
<path d="M0 0 C5.13796705 1.23311209 8.66395206 2.84651059 13 6 C13.99 6.66 14.98 7.32 16 8 C14.02 8 12.04 8 10 8 C10 7.34 10 6.68 10 6 C8.68 6 7.36 6 6 6 C6 5.34 6 4.68 6 4 C5.195625 3.71125 4.39125 3.4225 3.5625 3.125 C1 2 1 2 0 0 Z " fill="#C6CCD3" transform="translate(165,443)"/>
<path d="M0 0 C1 2 1 2 0.875 5.4375 C0.65061884 8.93834889 0.65061884 8.93834889 2.5 10.9375 C2.995 11.288125 3.49 11.63875 4 12 C0.89448334 12 -0.35261084 11.4606285 -3 10 C-2.25 3.375 -2.25 3.375 0 0 Z " fill="#6B7A86" transform="translate(147,421)"/>
<path d="M0 0 C4.01984912 6.02977369 4.25729264 12.92445235 4 20 C3.67 20 3.34 20 3 20 C1.09579269 13.19925959 -0.40850553 7.08076251 0 0 Z " fill="#C3CAD0" transform="translate(51,285)"/>
<path d="M0 0 C4.75 0.875 4.75 0.875 7 2 C7 2.66 7 3.32 7 4 C7.5775 4.28875 8.155 4.5775 8.75 4.875 C10.83333333 5.91666667 12.91666667 6.95833333 15 8 C14.01 8.495 14.01 8.495 13 9 C11.0546875 8.22265625 11.0546875 8.22265625 8.875 7.0625 C8.15054688 6.68222656 7.42609375 6.30195313 6.6796875 5.91015625 C5.84824219 5.45962891 5.84824219 5.45962891 5 5 C5 4.34 5 3.68 5 3 C2.525 2.01 2.525 2.01 0 1 C0 0.67 0 0.34 0 0 Z " fill="#84919A" transform="translate(151,434)"/>
<path d="M0 0 C8 9.42857143 8 9.42857143 8 14 C7.01 14 6.02 14 5 14 C2 7.375 2 7.375 2 4 C1.34 4 0.68 4 0 4 C0 2.68 0 1.36 0 0 Z " fill="#BDC6C9" transform="translate(368,241)"/>
<path d="M0 0 C0.66 1.32 1.32 2.64 2 4 C2.66 4 3.32 4 4 4 C5.17076699 7.98060777 6.25749403 11.91621717 7 16 C4.49546085 13.75380873 3.16425844 11.63373662 1.8125 8.5625 C1.46832031 7.80066406 1.12414062 7.03882812 0.76953125 6.25390625 C0 4 0 4 0 0 Z " fill="#7B858E" transform="translate(283,68)"/>
<path d="M0 0 C2 2 2 2 2 5 C2.66 5 3.32 5 4 5 C6.61588503 8.55760365 7.49357808 11.64477147 8 16 C7.34 16 6.68 16 6 16 C4.9901527 14.08850332 3.99245505 12.17058431 3 10.25 C2.443125 9.18265625 1.88625 8.1153125 1.3125 7.015625 C0 4 0 4 0 0 Z " fill="#C4CDD3" transform="translate(276,58)"/>
<path d="M0 0 C0.67578125 1.71484375 0.67578125 1.71484375 1 4 C-0.14453125 6.25390625 -0.14453125 6.25390625 -1.8125 8.5625 C-2.35519531 9.32691406 -2.89789063 10.09132812 -3.45703125 10.87890625 C-3.96621094 11.57886719 -4.47539062 12.27882812 -5 13 C-5.66 13.99 -6.32 14.98 -7 16 C-6.40165275 11.85701333 -4.99335715 8.81805623 -2.9375 5.1875 C-2.11572266 3.72376953 -2.11572266 3.72376953 -1.27734375 2.23046875 C-0.85582031 1.49441406 -0.43429688 0.75835937 0 0 Z " fill="#95A0A8" transform="translate(178,211)"/>
<path d="M0 0 C0.33 0.66 0.66 1.32 1 2 C0.34 2 -0.32 2 -1 2 C-1.103125 2.70125 -1.20625 3.4025 -1.3125 4.125 C-2.43722913 8.82841275 -4.28957441 12.81963521 -8 16 C-7.33333333 13.33333333 -6.66666667 10.66666667 -6 8 C-5.34 8 -4.68 8 -4 8 C-3.566875 6.2984375 -3.566875 6.2984375 -3.125 4.5625 C-2.75375 3.386875 -2.3825 2.21125 -2 1 C-1.34 0.67 -0.68 0.34 0 0 Z " fill="#ADB8C0" transform="translate(173,369)"/>
<path d="M0 0 C0.33 0 0.66 0 1 0 C1.34833144 4.87664009 0.41685712 7.77050005 -2 12 C-2.66 12 -3.32 12 -4 12 C-3.45660208 7.43545749 -2.20536179 4.0271824 0 0 Z " fill="#B5BDC5" transform="translate(469,332)"/>
<path d="M0 0 C0.33 0 0.66 0 1 0 C1.50423019 5.29441695 0.18923033 7.81413519 -3 12 C-3.88336837 9.5332355 -4.1312406 8.36140628 -3.22265625 5.859375 C-2.83980469 5.16328125 -2.45695312 4.4671875 -2.0625 3.75 C-1.68222656 3.04359375 -1.30195313 2.3371875 -0.91015625 1.609375 C-0.60980469 1.07828125 -0.30945313 0.5471875 0 0 Z " fill="#7C868F" transform="translate(262,191)"/>
<path d="M0 0 C-1.98 0.33 -3.96 0.66 -6 1 C-6.33 1.99 -6.66 2.98 -7 4 C-9.97 4 -12.94 4 -16 4 C-13.30175965 1.30175965 -10.65099396 0.96078789 -7 0 C-3.86650268 -1.04449911 -3.01031744 -0.93423645 0 0 Z " fill="#C7CDD3" transform="translate(338,458)"/>
<path d="M0 0 C2 1.375 2 1.375 4 3 C4 3.66 4 4.32 4 5 C4.99 5.33 5.98 5.66 7 6 C7.33 7.98 7.66 9.96 8 12 C4.72257902 8.89973691 2.06895163 6.02901106 0 2 C0 1.34 0 0.68 0 0 Z " fill="#6D7984" transform="translate(83,366)"/>
<path d="M0 0 C2.70272533 2.87164566 3.94791837 4.30991841 4.25 8.3125 C4.1675 9.199375 4.085 10.08625 4 11 C2.68 10.67 1.36 10.34 0 10 C0 6.7 0 3.4 0 0 Z " fill="#5A686F" transform="translate(305,262)"/>
<path d="M0 0 C0.97591583 3.38317487 0.85856655 5.5657338 0 9 C-0.639375 9.103125 -1.27875 9.20625 -1.9375 9.3125 C-2.9584375 9.6528125 -2.9584375 9.6528125 -4 10 C-4.33 10.99 -4.66 11.98 -5 13 C-4.39254603 8.14036821 -2.27241033 4.2594482 0 0 Z " fill="#B7C2C9" transform="translate(158,251)"/>
<path d="M0 0 C3.45547093 1.72773547 4.62448238 5.51535535 6 9 C6.25 12 6.25 12 6 14 C1.86217076 9.72424312 0.94055703 5.68046944 0 0 Z " fill="#D9DEE3" transform="translate(278,204)"/>
<path d="M0 0 C4.97306516 0.49730652 8.63799813 1.55302334 13 4 C9.75784173 5.08557659 7.97678191 4.94015194 4.8125 3.6875 C3.77029297 3.29111328 3.77029297 3.29111328 2.70703125 2.88671875 C1 2 1 2 0 0 Z " fill="#BCC2C8" transform="translate(181,451)"/>
<path d="M0 0 C2 1.3125 2 1.3125 4 3 C4 3.99 4 4.98 4 6 C4.66 6 5.32 6 6 6 C5.67 7.32 5.34 8.64 5 10 C0.76169024 7.17446016 1.02284652 4.87819112 0 0 Z " fill="#BEC5CD" transform="translate(359,367)"/>
<path d="M0 0 C3.69528813 2.62559946 5.85562438 4.5369351 7 9 C6.67 9.99 6.34 10.98 6 12 C3 7.25 3 7.25 3 5 C2.01 4.67 1.02 4.34 0 4 C0 2.68 0 1.36 0 0 Z " fill="#6A727E" transform="translate(397,296)"/>
<path d="M0 0 C0.66 0 1.32 0 2 0 C2.70226141 1.24176695 3.38629109 2.49385599 4.0625 3.75 C4.44535156 4.44609375 4.82820313 5.1421875 5.22265625 5.859375 C6.1312406 8.36140628 5.88336837 9.5332355 5 12 C4.15556432 10.75747321 3.3248542 9.5056114 2.5 8.25 C1.80390625 7.20585938 1.80390625 7.20585938 1.09375 6.140625 C0 4 0 4 0 0 Z " fill="#8A949D" transform="translate(290,84)"/>
<path d="M0 0 C1.32 0.33 2.64 0.66 4 1 C3.67 2.32 3.34 3.64 3 5 C2.34 5 1.68 5 1 5 C0.67 5.66 0.34 6.32 0 7 C-0.66 7 -1.32 7 -2 7 C-1.34 4.69 -0.68 2.38 0 0 Z " fill="#D6DBE3" transform="translate(265,40)"/>
<path d="M0 0 C4.34690791 4.93966808 5.31381216 10.56685067 5 17 C3.13809956 14.20714934 2.58202158 12.79886258 1.9375 9.625 C1.77378906 8.83480469 1.61007813 8.04460937 1.44140625 7.23046875 C1.29574219 6.49441406 1.15007813 5.75835937 1 5 C0.690625 3.4840625 0.690625 3.4840625 0.375 1.9375 C0.25125 1.298125 0.1275 0.65875 0 0 Z " fill="#949EA6" transform="translate(55,301)"/>
<path d="M0 0 C4.32111299 3.53545608 5.06994182 8.72967032 6 14 C3.3522659 12.67613295 3.0592562 11.36742791 1.875 8.6875 C1.52179688 7.90761719 1.16859375 7.12773437 0.8046875 6.32421875 C0 4 0 4 0 0 Z " fill="#8D98A2" transform="translate(462,153)"/>
<path d="M0 0 C0.8125 1.625 0.8125 1.625 1 4 C-0.46818136 6.24609835 -2.15852858 8.02378677 -4 10 C-4.8125 8.375 -4.8125 8.375 -5 6 C-3.53181864 3.75390165 -1.84147142 1.97621323 0 0 Z " fill="#C6CCD4" transform="translate(254,63)"/>
<path d="M0 0 C0.66 0 1.32 0 2 0 C1.35550393 3.01217112 0.34977818 5.51655836 -1.0625 8.25 C-1.42472656 8.95640625 -1.78695312 9.6628125 -2.16015625 10.390625 C-2.43730469 10.92171875 -2.71445313 11.4528125 -3 12 C-3.88336837 9.5332355 -4.1312406 8.36140628 -3.22265625 5.859375 C-2.83980469 5.16328125 -2.45695312 4.4671875 -2.0625 3.75 C-1.68222656 3.04359375 -1.30195312 2.3371875 -0.91015625 1.609375 C-0.60980469 1.07828125 -0.30945313 0.5471875 0 0 Z " fill="#D2D9DE" transform="translate(129,310)"/>
<path d="M0 0 C0.66 0.33 1.32 0.66 2 1 C1.21572648 2.64936913 0.42234741 4.29441127 -0.375 5.9375 C-0.81585938 6.85402344 -1.25671875 7.77054688 -1.7109375 8.71484375 C-3 11 -3 11 -5 12 C-4.67 10.35 -4.34 8.7 -4 7 C-3.34 7 -2.68 7 -2 7 C-1.855625 6.401875 -1.71125 5.80375 -1.5625 5.1875 C-1.1127561 3.43849596 -0.57107659 1.71322977 0 0 Z " fill="#D8E2E5" transform="translate(211,148)"/>
<path d="M0 0 C-2.87164566 2.70272533 -4.30991841 3.94791837 -8.3125 4.25 C-9.199375 4.1675 -10.08625 4.085 -11 4 C-9.71264403 1.42528807 -8.71510189 1.29583343 -6.0625 0.3125 C-5.35222656 0.04050781 -4.64195312 -0.23148437 -3.91015625 -0.51171875 C-2 -1 -2 -1 0 0 Z " fill="#B6BCC3" transform="translate(357,450)"/>
<path d="M0 0 C1.98 0 3.96 0 6 0 C2.98552165 2.57075841 0.64020229 3.52207066 -3.25 4.1875 C-4.58804687 4.42533203 -4.58804687 4.42533203 -5.953125 4.66796875 C-6.96632813 4.83232422 -6.96632813 4.83232422 -8 5 C-8 4.34 -8 3.68 -8 3 C-5.29120665 1.64560332 -2.99066732 1.93498549 0 2 C0 1.34 0 0.68 0 0 Z " fill="#546270" transform="translate(344,451)"/>
<path d="M0 0 C2.33333823 2.12121657 3.9148886 4.01594365 5 7 C4.625 9.25 4.625 9.25 4 11 C1.52214277 7.33708062 0.51035831 4.3890815 0 0 Z " fill="#CFCFD7" transform="translate(412,328)"/>
<path d="M0 0 C1.11665191 3.71425351 0.79401325 5.50639525 -1 9 C-1.99 9.495 -1.99 9.495 -3 10 C-3.66 10.99 -4.32 11.98 -5 13 C-4.39254603 8.14036821 -2.27241033 4.2594482 0 0 Z " fill="#9EAAB3" transform="translate(124,318)"/>
<path d="M0 0 C3 1 3 1 4.75 3.8125 C5.98589446 6.96403086 6.28222189 7.96929372 5 11 C4.67 10.01 4.34 9.02 4 8 C3.34 7.67 2.68 7.34 2 7 C1.26924352 4.6859378 0.59861742 2.35171131 0 0 Z " fill="#D4DBE1" transform="translate(289,228)"/>
<path d="M0 0 C0.65234375 1.765625 0.65234375 1.765625 1 4 C0.00390625 5.921875 0.00390625 5.921875 -1.4375 7.75 C-2.14712891 8.67039063 -2.14712891 8.67039063 -2.87109375 9.609375 C-3.24363281 10.06828125 -3.61617188 10.5271875 -4 11 C-5 8 -5 8 -4.25 5.5 C-3.06488343 3.12976686 -1.98707119 1.71610694 0 0 Z " fill="#BAC1C7" transform="translate(75,147)"/>
<path d="M0 0 C0 3.19610552 -0.54671542 4.41717626 -2 7.1875 C-2.37125 7.90292969 -2.7425 8.61835938 -3.125 9.35546875 C-3.41375 9.89816406 -3.7025 10.44085938 -4 11 C-4.33 11 -4.66 11 -5 11 C-5 8.69 -5 6.38 -5 4 C-4.01 4 -3.02 4 -2 4 C-1.34 2.68 -0.68 1.36 0 0 Z " fill="#616E78" transform="translate(214,139)"/>
<path d="M0 0 C0.33 0.66 0.66 1.32 1 2 C0.0625 4.625 0.0625 4.625 -1 7 C-1.66 7 -2.32 7 -3 7 C-3.33 7.99 -3.66 8.98 -4 10 C-4.33 8.68 -4.66 7.36 -5 6 C-4.01 5.67 -3.02 5.34 -2 5 C-0.78130071 2.49552484 -0.78130071 2.49552484 0 0 Z " fill="#D1DAE0" transform="translate(262,48)"/>
<path d="M0 0 C2.0245738 1.93254772 3.42105792 3.63158688 5 6 C4.625 8.1875 4.625 8.1875 4 10 C0 4.5 0 4.5 0 0 Z " fill="#ACB8BD" transform="translate(389,282)"/>
<path d="M0 0 C3.48331435 3.01887244 4.79157144 5.56909529 6 10 C2.46413986 6.82679218 0.41421969 4.83256305 0 0 Z " fill="#A7ADB2" transform="translate(309,269)"/>
<path d="M0 0 C1 2 1 2 0.25 5 C-1 8 -1 8 -4 10 C-3.43454163 6.04179141 -2.19097652 3.3340947 0 0 Z " fill="#BEC8CE" transform="translate(152,264)"/>
<path d="M0 0 C3.80984844 2.77079887 4.06840752 6.62868145 5 11 C4.34 11 3.68 11 3 11 C0 4.5 0 4.5 0 0 Z " fill="#B4B9C1" transform="translate(376,255)"/>
<path d="M0 0 C0.99 0.495 0.99 0.495 2 1 C2 2.32 2 3.64 2 5 C2.99 5.33 3.98 5.66 5 6 C5 7.65 5 9.3 5 11 C1.7089159 7.39042389 0.45336079 4.87362847 0 0 Z " fill="#C9D2D9" transform="translate(295,239)"/>
<path d="M0 0 C1.34780093 2.69560185 0.67336458 3.742617 -0.25 6.5625 C-0.50265625 7.36816406 -0.7553125 8.17382812 -1.015625 9.00390625 C-1.34046875 9.66261719 -1.6653125 10.32132813 -2 11 C-2.99 11.33 -3.98 11.66 -5 12 C-3.41037341 7.96479403 -1.71767682 3.98188718 0 0 Z " fill="#6C7683" transform="translate(252,212)"/>
<path d="M0 0 C0 3.23655184 -0.6550847 4.78752639 -2 7.6875 C-2.37125 8.49574219 -2.7425 9.30398437 -3.125 10.13671875 C-3.41375 10.75160156 -3.7025 11.36648437 -4 12 C-4.81708536 9.65734387 -5.18224726 8.46329171 -4.2578125 6.11328125 C-1.11111111 1.11111111 -1.11111111 1.11111111 0 0 Z " fill="#D7DCE1" transform="translate(184,203)"/>
<path d="M0 0 C0.33 0 0.66 0 1 0 C0.67 2.97 0.34 5.94 0 9 C-0.66 9 -1.32 9 -2 9 C-2.25 3.375 -2.25 3.375 0 0 Z " fill="#C7D3D9" transform="translate(193,182)"/>
<path d="M0 0 C0 3.19610552 -0.54671542 4.41717626 -2 7.1875 C-2.37125 7.90292969 -2.7425 8.61835938 -3.125 9.35546875 C-3.41375 9.89816406 -3.7025 10.44085938 -4 11 C-4.65234375 9.234375 -4.65234375 9.234375 -5 7 C-4.00390625 5.078125 -4.00390625 5.078125 -2.5625 3.25 C-2.08941406 2.63640625 -1.61632812 2.0228125 -1.12890625 1.390625 C-0.75636719 0.93171875 -0.38382812 0.4728125 0 0 Z " fill="#6A7783" transform="translate(75,151)"/>
<path d="M0 0 C0.99 0.495 0.99 0.495 2 1 C2 1.66 2 2.32 2 3 C2.66 3 3.32 3 4 3 C4.66 5.64 5.32 8.28 6 11 C5.34 10.67 4.68 10.34 4 10 C3.375 7.4375 3.375 7.4375 3 5 C2.01 4.67 1.02 4.34 0 4 C0 2.68 0 1.36 0 0 Z " fill="#889099" transform="translate(313,130)"/>
<path d="M0 0 C1.65 1.32 3.3 2.64 5 4 C4.67 5.32 4.34 6.64 4 8 C2 6.25 2 6.25 0 4 C0 2.68 0 1.36 0 0 Z " fill="#788591" transform="translate(439,118)"/>
<path d="M0 0 C0.66 0 1.32 0 2 0 C1.67 1.65 1.34 3.3 1 5 C0.34 5 -0.32 5 -1 5 C-1.33 5.99 -1.66 6.98 -2 8 C-3.24546405 5.50907189 -2.7767578 4.58919267 -2 2 C-1.34 2 -0.68 2 0 2 C0 1.34 0 0.68 0 0 Z " fill="#647380" transform="translate(460,348)"/>
<path d="M0 0 C3.93846154 3.32307692 3.93846154 3.32307692 4.25 6.75 C4.1675 7.4925 4.085 8.235 4 9 C3.34 9 2.68 9 2 9 C0.50178941 5.62902617 0 3.79557881 0 0 Z " fill="#97A0AA" transform="translate(356,215)"/>
<path d="M0 0 C3.48331435 3.01887244 4.79157144 5.56909529 6 10 C2.64888166 7.76592111 1.18446044 6.73784176 0.1875 2.75 C0.125625 1.8425 0.06375 0.935 0 0 Z " fill="#C5CDD4" transform="translate(337,180)"/>
<path d="M0 0 C0.66 0 1.32 0 2 0 C2 1.32 2 2.64 2 4 C2.66 4 3.32 4 4 4 C3.67 5.32 3.34 6.64 3 8 C3 7.34 3 6.68 3 6 C2.01 6 1.02 6 0 6 C0 4.02 0 2.04 0 0 Z " fill="#8E989D" transform="translate(318,287)"/>
<path d="M0 0 C2.79872437 2.52788007 4.45773019 4.20411134 5 8 C4.34 8 3.68 8 3 8 C0.25624329 5.04518508 0 4.22528092 0 0 Z " fill="#68747A" transform="translate(300,254)"/>
<path d="M0 0 C4.42857143 5.14285714 4.42857143 5.14285714 5 9 C4.34 9 3.68 9 3 9 C0.56839395 5.63316085 0 4.26649636 0 0 Z " fill="#6A7684" transform="translate(295,243)"/>
<path d="M0 0 C0.6875 1.6875 0.6875 1.6875 1 4 C-0.3125 6.75 -0.3125 6.75 -2 9 C-2.66 9 -3.32 9 -4 9 C-2.25 2.25 -2.25 2.25 0 0 Z " fill="#727B87" transform="translate(257,203)"/>
<path d="M0 0 C0.33 1.32 0.66 2.64 1 4 C-1.475 5.485 -1.475 5.485 -4 7 C-3.39816251 4.97954558 -2.72693904 2.97888961 -2 1 C-1.34 0.67 -0.68 0.34 0 0 Z " fill="#CAD3D7" transform="translate(203,165)"/>
<path d="M0 0 C0.75 1.625 0.75 1.625 1 4 C-0.9375 7.25 -0.9375 7.25 -3 10 C-3.6875 8.1875 -3.6875 8.1875 -4 6 C-2.625 4.4375 -2.625 4.4375 -1 3 C-0.67 2.01 -0.34 1.02 0 0 Z " fill="#CFD9DF" transform="translate(229,112)"/>
<path d="M0 0 C0.99 0.495 0.99 0.495 2 1 C2.33 1.99 2.66 2.98 3 4 C3.515625 4.515625 4.03125 5.03125 4.5625 5.5625 C5.036875 6.036875 5.51125 6.51125 6 7 C6 7.66 6 8.32 6 9 C5.01 9 4.02 9 3 9 C2.01 6.03 1.02 3.06 0 0 Z " fill="#C6CED4" transform="translate(292,91)"/>
<path d="M0 0 C3.37503669 1.1858237 5.64722731 2.27573689 8 5 C5.125 4.75 5.125 4.75 2 4 C0.625 1.9375 0.625 1.9375 0 0 Z " fill="#6E7B88" transform="translate(384,69)"/>
<path d="M0 0 C1.4835001 0.42257276 2.96176424 0.86356322 4.4375 1.3125 C5.67306641 1.67794922 5.67306641 1.67794922 6.93359375 2.05078125 C7.61550781 2.36402344 8.29742187 2.67726563 9 3 C9.33 3.99 9.66 4.98 10 6 C6.40992874 4.66654496 3.20429093 3.1056769 0 1 C0 0.67 0 0.34 0 0 Z " fill="#CDD3D9" transform="translate(378,64)"/>
<path d="M0 0 C0.99 0.33 1.98 0.66 3 1 C3 2.32 3 3.64 3 5 C3.99 5.33 4.98 5.66 6 6 C6 6.99 6 7.98 6 9 C5.34 9 4.68 9 4 9 C2.68 6.03 1.36 3.06 0 0 Z " fill="#D7DDE1" transform="translate(453,136)"/>
<path d="M0 0 C1.32 0.33 2.64 0.66 4 1 C4.33 3.31 4.66 5.62 5 8 C2.20127563 5.47211993 0.54226981 3.79588866 0 0 Z " fill="#606A75" transform="translate(271,46)"/>
</svg>
